<?xml version="1.0" encoding="utf-8"?>
<!-- Generator: Adobe Illustrator 16.0.0, SVG Export Plug-In . SVG Version: 6.00 Build 0)  -->
<!DOCTYPE svg PUBLIC "-//W3C//DTD SVG 1.1//EN" "http://www.w3.org/Graphics/SVG/1.1/DTD/svg11.dtd">
<svg version="1.1" xmlns="http://www.w3.org/2000/svg" xmlns:xlink="http://www.w3.org/1999/xlink" x="0px" y="0px" width="124px"
	 height="124px" viewBox="0 0 124 124" enable-background="new 0 0 124 124" xml:space="preserve">
<g id="background">
</g>
<g id="maps">
</g>
<g id="Cubes">
	<rect fill="#C77498" width="124" height="124"/>
	<g opacity="0.2">
		<path d="M119,5v114H5V5H119 M124,0H0v124h124V0L124,0z"/>
	</g>
</g>
<g id="Icons">
</g>
<g id="Text">
</g>
<g id="layer_3">
	<g>
		<g>
			
				<line fill="none" stroke="#33312E" stroke-linecap="round" stroke-linejoin="round" stroke-miterlimit="10" x1="72.36" y1="50.182" x2="80.309" y2="42.214"/>
			<path fill="none" stroke="#33312E" stroke-linecap="round" stroke-linejoin="round" stroke-miterlimit="10" d="M70.02,57.459
				c2.547-2.552,7.271-4.926,7.271-4.926c1.84-6.92,3.118-10.42,3.118-10.42s-3.492,1.28-10.396,3.127c0,0-2.366,4.735-4.913,7.288
				L70.02,57.459z"/>
			
				<circle fill="none" stroke="#33312E" stroke-linecap="round" stroke-linejoin="round" stroke-miterlimit="10" cx="71.728" cy="50.814" r="0.906"/>
			<polygon fill="none" stroke="#33312E" stroke-linecap="round" stroke-linejoin="round" stroke-miterlimit="10" points="
				68.318,59.753 62.803,54.224 65.1,52.528 70.01,57.449 			"/>
			<polygon fill="none" stroke="#33312E" stroke-linecap="round" stroke-linejoin="round" stroke-miterlimit="10" points="
				62.803,54.224 68.318,59.753 37.245,87.678 34.945,85.369 			"/>
		</g>
		
			<line fill="none" stroke="#33312E" stroke-linecap="round" stroke-linejoin="round" stroke-miterlimit="10" x1="34.321" y1="88.113" x2="78.734" y2="88.113"/>
		<g>
			<polygon fill="none" stroke="#33312E" stroke-linecap="round" stroke-linejoin="round" stroke-miterlimit="10" points="
				80.882,71.091 66.98,71.091 63.54,88.113 84.321,88.113 			"/>
			
				<rect x="68.461" y="69.319" fill="none" stroke="#33312E" stroke-linecap="round" stroke-linejoin="round" stroke-miterlimit="10" width="10.939" height="1.771"/>
			
				<rect x="68.461" y="67.55" fill="none" stroke="#33312E" stroke-linecap="round" stroke-linejoin="round" stroke-miterlimit="10" width="10.939" height="1.77"/>
			
				<rect x="66.765" y="62.4" fill="none" stroke="#33312E" stroke-linecap="round" stroke-linejoin="round" stroke-miterlimit="10" width="14.332" height="5.149"/>
			
				<line fill="none" stroke="#33312E" stroke-linecap="round" stroke-linejoin="round" stroke-miterlimit="10" x1="68.461" y1="71.091" x2="67.314" y2="88.113"/>
			
				<line fill="none" stroke="#33312E" stroke-linecap="round" stroke-linejoin="round" stroke-miterlimit="10" x1="79.377" y1="71.091" x2="80.523" y2="88.113"/>
		</g>
	</g>
</g>
<g id="_x3C_Opacity_Mask_x3E_">
</g>
<g id="Isolation_Mode">
</g>
</svg>
