<?xml version="1.0" encoding="utf-8"?>
<!-- Generator: Adobe Illustrator 16.0.0, SVG Export Plug-In . SVG Version: 6.00 Build 0)  -->
<!DOCTYPE svg PUBLIC "-//W3C//DTD SVG 1.1//EN" "http://www.w3.org/Graphics/SVG/1.1/DTD/svg11.dtd">
<svg version="1.1" xmlns="http://www.w3.org/2000/svg" xmlns:xlink="http://www.w3.org/1999/xlink" x="0px" y="0px" width="126px"
	 height="126px" viewBox="0 0 126 126" enable-background="new 0 0 126 126" xml:space="preserve">
<g id="background">
</g>
<g id="maps">
</g>
<g id="Cubes">
	<rect fill="#5392C7" width="126" height="126"/>
	<g opacity="0.2">
		<g>
			<path d="M121,5v116H5V5H121 M126,0H0v126h126V0L126,0z"/>
		</g>
	</g>
</g>
<g id="Icons">
</g>
<g id="Text">
</g>
<g id="layer_3">
	<g>
		<path fill="none" stroke="#33312E" stroke-linecap="round" stroke-linejoin="round" stroke-miterlimit="10" d="M62.415,36
			l-0.006-0.002c0,0-9.139,5.651-22.994,5.655c0,0,1.047,36.769,22.994,48.342l0.006,0.003c0.004-0.001,0.004-0.001,0.004-0.001
			c21.952-11.573,22.996-48.344,22.996-48.344C71.556,41.649,62.415,36,62.415,36z M62.854,86.577l-0.003-47.154
			c3.027,1.529,9.671,4.533,19.323,5.113C81.396,52.979,78.289,77.14,62.854,86.577z"/>
	</g>
</g>
<g id="_x3C_Opacity_Mask_x3E_">
</g>
<g id="Isolation_Mode">
</g>
</svg>
