<?xml version="1.0" encoding="utf-8"?>
<!-- Generator: Adobe Illustrator 16.0.0, SVG Export Plug-In . SVG Version: 6.00 Build 0)  -->
<!DOCTYPE svg PUBLIC "-//W3C//DTD SVG 1.1//EN" "http://www.w3.org/Graphics/SVG/1.1/DTD/svg11.dtd">
<svg version="1.1" xmlns="http://www.w3.org/2000/svg" xmlns:xlink="http://www.w3.org/1999/xlink" x="0px" y="0px" width="104px"
	 height="104px" viewBox="0 0 104 104" enable-background="new 0 0 104 104" xml:space="preserve">
<g id="background">
</g>
<g id="maps">
</g>
<g id="Cubes">
	<rect fill="#9CD1BC" width="104" height="104"/>
	<g opacity="0.2">
		<path d="M99,5v94H5V5H99 M104,0H0v104h104V0L104,0z"/>
	</g>
</g>
<g id="Icons">
	<g>
		<g>
			<g>
				<polyline fill="none" stroke="#33312E" stroke-miterlimit="10" points="34.563,69.081 40.421,67.929 42.371,60.316 
					40.202,60.316 40.202,62.556 41.841,62.38 				"/>
				<polyline fill="none" stroke="#33312E" stroke-miterlimit="10" points="36.28,68.688 34.696,60.316 33.114,60.316 
					33.114,62.675 34.718,62.34 				"/>
				<polyline fill="none" stroke="#33312E" stroke-miterlimit="10" points="38.476,68.354 38.476,60.316 36.636,60.316 
					36.636,62.651 38.384,62.443 				"/>
			</g>
			<line fill="none" stroke="#33312E" stroke-miterlimit="10" x1="64.68" y1="56.447" x2="64.68" y2="71.203"/>
			<line fill="none" stroke="#33312E" stroke-miterlimit="10" x1="68.803" y1="56.447" x2="68.803" y2="71.203"/>
			<line fill="none" stroke="#33312E" stroke-miterlimit="10" x1="72.925" y1="56.447" x2="72.925" y2="71.203"/>
			<rect x="29.918" y="56.447" fill="none" stroke="#33312E" stroke-miterlimit="10" width="14.532" height="14.756"/>
			<rect x="27.84" y="71.203" fill="#9CD1BC" stroke="#33312E" stroke-miterlimit="10" width="18.687" height="3.844"/>
			<rect x="61.537" y="56.447" fill="none" stroke="#33312E" stroke-miterlimit="10" width="14.532" height="14.756"/>
			<rect x="59.46" y="71.203" fill="#9CD1BC" stroke="#33312E" stroke-miterlimit="10" width="18.687" height="3.844"/>
		</g>
		<line fill="none" stroke="#33312E" stroke-miterlimit="10" x1="21.679" y1="75.047" x2="84.679" y2="75.047"/>
		<rect x="50.923" y="36.652" fill="none" stroke="#33312E" stroke-miterlimit="10" width="4.142" height="19.795"/>
		<polygon fill="none" stroke="#33312E" stroke-miterlimit="10" points="55.568,63.223 50.42,63.223 49.432,56.447 56.556,56.447 		
			"/>
		<polygon fill="none" stroke="#33312E" stroke-miterlimit="10" points="57.626,75.047 48.362,75.047 50.338,63.057 55.65,63.057 		
			"/>
		<line fill="none" stroke="#33312E" stroke-miterlimit="10" x1="52.994" y1="36.652" x2="52.994" y2="34.769"/>
		<path fill="none" stroke="#33312E" stroke-miterlimit="10" d="M52.994,34.95c3.449-3.502,0-7.903,0-7.903
			S49.544,31.448,52.994,34.95z"/>
	</g>
</g>
<g id="Text">
</g>
<g id="layer_3">
</g>
<g id="_x3C_Opacity_Mask_x3E_">
</g>
<g id="Isolation_Mode">
</g>
</svg>
