<?xml version="1.0" encoding="utf-8"?>
<!-- Generator: Adobe Illustrator 16.0.0, SVG Export Plug-In . SVG Version: 6.00 Build 0)  -->
<!DOCTYPE svg PUBLIC "-//W3C//DTD SVG 1.1//EN" "http://www.w3.org/Graphics/SVG/1.1/DTD/svg11.dtd">
<svg version="1.1" xmlns="http://www.w3.org/2000/svg" xmlns:xlink="http://www.w3.org/1999/xlink" x="0px" y="0px" width="196px"
	 height="196px" viewBox="0 0 196 196" enable-background="new 0 0 196 196" xml:space="preserve">
<g id="background">
</g>
<g id="maps">
</g>
<g id="Cubes">
	<rect fill="#FFBD47" width="196" height="196"/>
	<g opacity="0.2">
		<path d="M191,5v186H5V5H191 M196,0H0v196h196V0L196,0z"/>
	</g>
</g>
<g id="Icons">
</g>
<g id="Text">
</g>
<g id="layer_3">
	<g>
		<rect x="107.779" y="69.856" fill="#FFBD47" stroke="#33312E" stroke-miterlimit="10" width="20.538" height="12.152"/>
		<line fill="#FFBD47" stroke="#33312E" stroke-miterlimit="10" x1="66.317" y1="123.856" x2="128.317" y2="123.856"/>
		<line fill="#FFBD47" stroke="#33312E" stroke-miterlimit="10" x1="110.87" y1="74.268" x2="125.06" y2="74.268"/>
		<line fill="#FFBD47" stroke="#33312E" stroke-miterlimit="10" x1="110.87" y1="77.973" x2="125.06" y2="77.973"/>
		<rect x="125.989" y="82.009" fill="#FFBD47" stroke="#33312E" stroke-miterlimit="10" width="2.328" height="41.416"/>
		<path fill="#FFBD47" stroke="#33312E" stroke-miterlimit="10" d="M66.317,116.312h62V87.253c0,0-23.697,0-42.45,0
			s-19.55,15.921-19.55,20.67C66.317,112.673,66.317,116.312,66.317,116.312z"/>
		<path fill="#FFBD47" stroke="#33312E" stroke-miterlimit="10" d="M71.76,103.152H91.23v-10.19c0,0-6.04,0-9.081,0
			C74.104,92.962,71.76,103.152,71.76,103.152z"/>
		<ellipse fill="#FFBD47" stroke="#33312E" stroke-miterlimit="10" cx="80.123" cy="116.312" rx="6.926" ry="6.826"/>
		<ellipse fill="#FFBD47" stroke="#33312E" stroke-miterlimit="10" cx="80.123" cy="116.312" rx="3.363" ry="3.314"/>
		<ellipse fill="#FFBD47" stroke="#33312E" stroke-miterlimit="10" cx="116.05" cy="116.312" rx="6.926" ry="6.826"/>
		<rect x="107.779" y="92.962" fill="#FFBD47" stroke="#33312E" stroke-miterlimit="10" width="17.28" height="10.211"/>
		<rect x="94.652" y="92.962" fill="#FFBD47" stroke="#33312E" stroke-miterlimit="10" width="9.653" height="23.35"/>
		<ellipse fill="#FFBD47" stroke="#33312E" stroke-miterlimit="10" cx="116.05" cy="116.312" rx="3.364" ry="3.314"/>
		<line fill="#FFBD47" stroke="#33312E" stroke-miterlimit="10" x1="87.049" y1="103.152" x2="89.267" y2="98.585"/>
		<line fill="#FFBD47" stroke="#33312E" stroke-miterlimit="10" x1="79.682" y1="103.152" x2="81.898" y2="98.585"/>
		<line fill="#FFBD47" stroke="#33312E" stroke-miterlimit="10" x1="109.124" y1="103.152" x2="111.341" y2="98.585"/>
		<line fill="#FFBD47" stroke="#33312E" stroke-miterlimit="10" x1="114.202" y1="103.152" x2="116.419" y2="98.585"/>
		<line fill="#FFBD47" stroke="#33312E" stroke-miterlimit="10" x1="119.28" y1="103.152" x2="121.497" y2="98.585"/>
	</g>
</g>
<g id="_x3C_Opacity_Mask_x3E_">
</g>
<g id="Isolation_Mode">
</g>
</svg>
