<?xml version="1.0" encoding="utf-8"?>
<!-- Generator: Adobe Illustrator 16.0.0, SVG Export Plug-In . SVG Version: 6.00 Build 0)  -->
<!DOCTYPE svg PUBLIC "-//W3C//DTD SVG 1.1//EN" "http://www.w3.org/Graphics/SVG/1.1/DTD/svg11.dtd">
<svg version="1.1" xmlns="http://www.w3.org/2000/svg" xmlns:xlink="http://www.w3.org/1999/xlink" x="0px" y="0px" width="98px"
	 height="98px" viewBox="0 0 98 98" enable-background="new 0 0 98 98" xml:space="preserve">
<g id="background">
</g>
<g id="maps">
</g>
<g id="Cubes">
	<rect fill="#AED65E" width="98" height="98"/>
	<g opacity="0.2">
		<path d="M93,5v88H5V5H93 M98,0H0v98h98V0L98,0z"/>
	</g>
</g>
<g id="Icons">
</g>
<g id="Text">
</g>
<g id="layer_3">
	<g>
		
			<line fill="none" stroke="#33312E" stroke-linecap="round" stroke-linejoin="round" stroke-miterlimit="10" x1="20.526" y1="44.245" x2="78.526" y2="44.245"/>
		
			<line fill="none" stroke="#33312E" stroke-linecap="round" stroke-linejoin="round" stroke-miterlimit="10" x1="48.647" y1="44.245" x2="48.647" y2="72.607"/>
		
			<line fill="none" stroke="#33312E" stroke-linecap="round" stroke-linejoin="round" stroke-miterlimit="10" x1="46.227" y1="44.245" x2="43.218" y2="72.607"/>
		
			<line fill="none" stroke="#33312E" stroke-linecap="round" stroke-linejoin="round" stroke-miterlimit="10" x1="43.218" y1="44.245" x2="37.827" y2="72.607"/>
		
			<line fill="none" stroke="#33312E" stroke-linecap="round" stroke-linejoin="round" stroke-miterlimit="10" x1="39.958" y1="44.245" x2="32.061" y2="72.607"/>
		
			<line fill="none" stroke="#33312E" stroke-linecap="round" stroke-linejoin="round" stroke-miterlimit="10" x1="36.949" y1="44.245" x2="26.042" y2="72.607"/>
		
			<line fill="none" stroke="#33312E" stroke-linecap="round" stroke-linejoin="round" stroke-miterlimit="10" x1="33.94" y1="44.245" x2="20.526" y2="72.607"/>
		
			<line fill="none" stroke="#33312E" stroke-linecap="round" stroke-linejoin="round" stroke-miterlimit="10" x1="30.556" y1="44.245" x2="20.526" y2="62.191"/>
		
			<line fill="none" stroke="#33312E" stroke-linecap="round" stroke-linejoin="round" stroke-miterlimit="10" x1="27.233" y1="44.245" x2="20.526" y2="53.219"/>
		
			<line fill="none" stroke="#33312E" stroke-linecap="round" stroke-linejoin="round" stroke-miterlimit="10" x1="51.069" y1="44.245" x2="54.078" y2="72.607"/>
		
			<line fill="none" stroke="#33312E" stroke-linecap="round" stroke-linejoin="round" stroke-miterlimit="10" x1="54.078" y1="44.245" x2="59.469" y2="72.607"/>
		
			<line fill="none" stroke="#33312E" stroke-linecap="round" stroke-linejoin="round" stroke-miterlimit="10" x1="57.337" y1="44.245" x2="65.235" y2="72.607"/>
		
			<line fill="none" stroke="#33312E" stroke-linecap="round" stroke-linejoin="round" stroke-miterlimit="10" x1="60.347" y1="44.245" x2="71.253" y2="72.607"/>
		
			<line fill="none" stroke="#33312E" stroke-linecap="round" stroke-linejoin="round" stroke-miterlimit="10" x1="63.354" y1="44.245" x2="76.77" y2="72.607"/>
		
			<line fill="none" stroke="#33312E" stroke-linecap="round" stroke-linejoin="round" stroke-miterlimit="10" x1="66.74" y1="44.245" x2="76.77" y2="62.191"/>
		
			<line fill="none" stroke="#33312E" stroke-linecap="round" stroke-linejoin="round" stroke-miterlimit="10" x1="70.063" y1="44.245" x2="76.77" y2="53.219"/>
		
			<circle fill="none" stroke="#33312E" stroke-linecap="round" stroke-linejoin="round" stroke-miterlimit="10" cx="66.74" cy="31.38" r="5.015"/>
		<path fill="none" stroke="#33312E" stroke-linecap="round" stroke-linejoin="round" stroke-miterlimit="10" d="M40.238,31.629
			c0.049-0.313,0.082-0.63,0.082-0.957c0-3.349-2.713-6.064-6.059-6.064c-2.831,0-5.202,1.947-5.866,4.574
			c-1.564,0.605-2.678,2.115-2.678,3.894c0,2.311,1.87,4.183,4.178,4.183c0.799,0,1.532-0.242,2.165-0.633v7.62h3.385v-5.824
			c0.63,0.388,1.368,0.616,2.163,0.616c2.308,0,4.179-1.872,4.179-4.183C41.787,33.548,41.176,32.396,40.238,31.629z"/>
	</g>
</g>
<g id="_x3C_Opacity_Mask_x3E_">
</g>
<g id="Isolation_Mode">
</g>
</svg>
