<?xml version="1.0" encoding="utf-8"?>
<!-- Generator: Adobe Illustrator 16.0.0, SVG Export Plug-In . SVG Version: 6.00 Build 0)  -->
<!DOCTYPE svg PUBLIC "-//W3C//DTD SVG 1.1//EN" "http://www.w3.org/Graphics/SVG/1.1/DTD/svg11.dtd">
<svg version="1.1" xmlns="http://www.w3.org/2000/svg" xmlns:xlink="http://www.w3.org/1999/xlink" x="0px" y="0px" width="72px"
	 height="72px" viewBox="0 0 72 72" enable-background="new 0 0 72 72" xml:space="preserve">
<g id="background">
</g>
<g id="maps">
</g>
<g id="Cubes">
	<rect x="0" fill="#38B19A" width="72" height="72"/>
</g>
<g id="Icons">
</g>
<g id="Text">
</g>
<g id="layer_3">
	<g opacity="0.2">
		<path d="M67,5v62H5V5H67 M72,0H0v72h72V0L72,0z"/>
	</g>
</g>
<g id="_x3C_Opacity_Mask_x3E_">
</g>
<g id="Isolation_Mode">
	<g>
		<g>
			<g>
				<path fill="#38B19A" d="M38.854,44.676c0,1.1-0.9,2-2,2h-2.237c-1.1,0-2-0.9-2-2V21.715c0-1.1,0.9-2,2-2h2.237c1.1,0,2,0.9,2,2
					V44.676z"/>
				<path fill="none" stroke="#33312E" stroke-linecap="round" stroke-linejoin="round" stroke-miterlimit="10" d="M38.854,44.676
					c0,1.1-0.9,2-2,2h-2.237c-1.1,0-2-0.9-2-2V21.715c0-1.1,0.9-2,2-2h2.237c1.1,0,2,0.9,2,2V44.676z"/>
			</g>
			
				<ellipse fill="#38B19A" stroke="#33312E" stroke-linecap="round" stroke-linejoin="round" stroke-miterlimit="10" cx="35.736" cy="17.264" rx="3.17" ry="3.221"/>
			
				<line fill="none" stroke="#33312E" stroke-linecap="round" stroke-linejoin="round" stroke-miterlimit="10" x1="32.617" y1="32.314" x2="38.659" y2="32.314"/>
			
				<line fill="none" stroke="#33312E" stroke-linecap="round" stroke-linejoin="round" stroke-miterlimit="10" x1="35.737" y1="32.314" x2="35.737" y2="44.357"/>
			<polyline fill="none" stroke="#33312E" stroke-linecap="round" stroke-linejoin="round" stroke-miterlimit="10" points="
				32.617,21.484 30.668,28.967 28.72,32.973 			"/>
			<polyline fill="none" stroke="#33312E" stroke-linecap="round" stroke-linejoin="round" stroke-miterlimit="10" points="
				38.854,21.484 40.802,28.967 42.75,32.973 			"/>
		</g>
		<g>
			<path fill="#38B19A" stroke="#33312E" stroke-linecap="round" stroke-linejoin="round" stroke-miterlimit="10" d="M41.235,40.844
				c6.806,0,7.807-9.436,7.807-14.275s3.747-5.229,3.747-1.42c0,3.807,1.172,23.67-9.369,23.672L41.235,40.844z"/>
			<path fill="#38B19A" stroke="#33312E" stroke-linecap="round" stroke-linejoin="round" stroke-miterlimit="10" d="M39.531,42.463
				c6.805,0,7.552-11.195,7.552-16.037c0-4.84,3.748-5.227,3.748-1.42c0,3.809,1.172,24.508-9.37,24.508L39.531,42.463z"/>
			<path fill="#38B19A" stroke="#33312E" stroke-linecap="round" stroke-linejoin="round" stroke-miterlimit="10" d="M37.399,43.775
				c6.808,0,7.487-11.438,7.487-16.277c0-4.842,3.749-5.229,3.749-1.42c0,3.807,1.17,24.508-9.37,24.508L37.399,43.775z"/>
			<path fill="#38B19A" stroke="#33312E" stroke-linecap="round" stroke-linejoin="round" stroke-miterlimit="10" d="M20.828,64.043
				c0-3.246,0-7.205,0-10.25c0-10.232,9.592-10.945,14.511-10.945c6.807,0,6.807-6.791,6.807-11.631c0-4.838,3.747-5.227,3.747-1.42
				c0,3.809,1.138,21.854-9.369,21.854c-6.631,0-6.825,6.24-6.129,12.393H20.828z"/>
		</g>
	</g>
</g>
</svg>
