<?xml version="1.0" encoding="utf-8"?>
<!-- Generator: Adobe Illustrator 16.0.0, SVG Export Plug-In . SVG Version: 6.00 Build 0)  -->
<!DOCTYPE svg PUBLIC "-//W3C//DTD SVG 1.1//EN" "http://www.w3.org/Graphics/SVG/1.1/DTD/svg11.dtd">
<svg version="1.1" xmlns="http://www.w3.org/2000/svg" xmlns:xlink="http://www.w3.org/1999/xlink" x="0px" y="0px" width="118px"
	 height="118px" viewBox="0 0 118 118" enable-background="new 0 0 118 118" xml:space="preserve">
<g id="background">
</g>
<g id="maps">
</g>
<g id="Cubes">
	<rect fill="#41B5D1" width="118" height="118"/>
	<g opacity="0.2">
		<path d="M113,5v108H5V5H113 M118,0H0v118h118V0L118,0z"/>
	</g>
	<g>
		<g>
			<path fill="#41B5D1" stroke="#33312E" stroke-linecap="round" stroke-linejoin="round" stroke-miterlimit="10" d="M79.365,53.535
				c6.138,0,7.041-8.479,7.041-12.827c0-4.351,3.38-4.698,3.38-1.277c0,3.422,1.057,21.272-8.451,21.272L79.365,53.535z"/>
			<path fill="#41B5D1" stroke="#33312E" stroke-linecap="round" stroke-linejoin="round" stroke-miterlimit="10" d="M77.827,54.99
				c6.139,0,6.813-10.061,6.813-14.41c0-4.351,3.381-4.698,3.381-1.276c0,3.421,1.057,22.022-8.452,22.022L77.827,54.99z"/>
			<path fill="#41B5D1" stroke="#33312E" stroke-linecap="round" stroke-linejoin="round" stroke-miterlimit="10" d="M75.905,56.169
				c6.139,0,6.753-10.276,6.753-14.626c0-4.351,3.382-4.698,3.382-1.276c0,3.42,1.056,22.022-8.452,22.022L75.905,56.169z"/>
			<path fill="#41B5D1" stroke="#33312E" stroke-linecap="round" stroke-linejoin="round" stroke-miterlimit="10" d="M79.898,57.077
				c0,0,0.402-2.888,0.756-5.184c0.533-3.449-3.039-4.597-4.803-1.217c-2.85,5.46-7.295,5.307-7.762,8.079
				C67.664,61.28,79.898,57.077,79.898,57.077z"/>
			<path fill="#41B5D1" stroke="#33312E" stroke-linecap="round" stroke-linejoin="round" stroke-miterlimit="10" d="M60.958,82.49
				c0,0,0-10.264,0-17.319c0-9.193,8.651-9.835,13.089-9.835c6.139,0,6.139-6.102,6.139-10.45c0-4.35,3.381-4.698,3.381-1.276
				s1.025,19.638-8.451,19.638c-9.271,0-4.596,13.469-4.596,19.243H60.958z"/>
			<path fill="#41B5D1" stroke="#33312E" stroke-linecap="round" stroke-linejoin="round" stroke-miterlimit="10" d="M38.277,53.535
				c-6.138,0-7.041-8.479-7.041-12.827c0-4.351-3.38-4.698-3.38-1.277c0,3.422-1.057,21.272,8.451,21.272L38.277,53.535z"/>
			<path fill="#41B5D1" stroke="#33312E" stroke-linecap="round" stroke-linejoin="round" stroke-miterlimit="10" d="M39.815,54.99
				c-6.139,0-6.813-10.061-6.813-14.41c0-4.351-3.381-4.698-3.381-1.276c0,3.421-1.057,22.022,8.452,22.022L39.815,54.99z"/>
			<path fill="#41B5D1" stroke="#33312E" stroke-linecap="round" stroke-linejoin="round" stroke-miterlimit="10" d="M41.736,56.169
				c-6.138,0-6.753-10.276-6.753-14.626c0-4.351-3.381-4.698-3.381-1.276c0,3.42-1.056,22.022,8.452,22.022L41.736,56.169z"/>
			<path fill="#41B5D1" stroke="#33312E" stroke-linecap="round" stroke-linejoin="round" stroke-miterlimit="10" d="M37.744,57.077
				c0,0-0.402-2.888-0.756-5.184c-0.534-3.449,3.039-4.597,4.803-1.217c2.85,5.46,7.294,5.307,7.762,8.079
				C49.979,61.28,37.744,57.077,37.744,57.077z"/>
			<path fill="#41B5D1" stroke="#33312E" stroke-linecap="round" stroke-linejoin="round" stroke-miterlimit="10" d="M56.685,82.49
				c0,0,0-10.264,0-17.319c0-9.193-8.652-9.835-13.089-9.835c-6.14,0-6.14-6.102-6.14-10.45c0-4.35-3.38-4.698-3.38-1.276
				s-1.025,19.638,8.451,19.638c9.271,0,4.596,13.469,4.596,19.243H56.685z"/>
		</g>
		<polygon fill="none" stroke="#33312E" stroke-linecap="round" stroke-linejoin="round" stroke-miterlimit="10" points="
			58.821,34.49 61.518,39.244 66.935,39.23 64.215,43.971 66.935,48.711 61.518,48.696 58.821,53.451 56.124,48.696 50.708,48.711 
			53.428,43.971 50.708,39.23 56.124,39.244 		"/>
	</g>
</g>
<g id="Icons">
</g>
<g id="Text">
</g>
<g id="layer_3">
</g>
<g id="_x3C_Opacity_Mask_x3E_">
</g>
<g id="Isolation_Mode">
</g>
</svg>
