<?xml version="1.0" encoding="utf-8"?>
<!-- Generator: Adobe Illustrator 16.0.0, SVG Export Plug-In . SVG Version: 6.00 Build 0)  -->
<!DOCTYPE svg PUBLIC "-//W3C//DTD SVG 1.1//EN" "http://www.w3.org/Graphics/SVG/1.1/DTD/svg11.dtd">
<svg version="1.1" xmlns="http://www.w3.org/2000/svg" xmlns:xlink="http://www.w3.org/1999/xlink" x="0px" y="0px" width="112px"
	 height="112px" viewBox="0 0 112 112" enable-background="new 0 0 112 112" xml:space="preserve">
<g id="background">
</g>
<g id="maps">
</g>
<g id="Cubes">
	<rect fill="#F06A5C" width="112" height="112"/>
	<g opacity="0.2">
		<path d="M107,5v102H5V5H107 M112,0H0v112h112V0L112,0z"/>
	</g>
</g>
<g id="Icons">
	<g>
		<g>
			<path fill="none" stroke="#33312E" stroke-linecap="round" stroke-linejoin="round" stroke-miterlimit="10" d="M82.901,73.299
				c0,3.686-3.016,6.701-6.701,6.701H34.603c-3.686,0-6.701-3.016-6.701-6.701V48.125c0-3.685,3.016-6.7,6.701-6.7H76.2
				c3.686,0,6.701,3.016,6.701,6.7V73.299z"/>
		</g>
		<polygon fill="none" stroke="#33312E" stroke-linecap="round" stroke-linejoin="round" stroke-miterlimit="10" points="
			64.471,57.699 58.438,57.699 58.438,51.711 52.365,51.711 52.365,57.699 46.331,57.699 46.331,63.727 52.365,63.727 
			52.365,69.715 58.438,69.715 58.438,63.727 64.471,63.727 		"/>
		<g>
			<path fill="none" stroke="#33312E" stroke-linecap="round" stroke-linejoin="round" stroke-miterlimit="10" d="M65.89,41.425
				V33.34c0-0.737-0.604-1.34-1.34-1.34H46.253c-0.736,0-1.34,0.603-1.34,1.34v8.085"/>
		</g>
		
			<line fill="none" stroke="#33312E" stroke-linecap="round" stroke-linejoin="round" stroke-miterlimit="10" stroke-dasharray="3.3505,3.3505" x1="74.395" y1="41.988" x2="74.395" y2="79.998"/>
		
			<line fill="none" stroke="#33312E" stroke-linecap="round" stroke-linejoin="round" stroke-miterlimit="10" stroke-dasharray="3.3505,3.3505" x1="36.409" y1="41.988" x2="36.409" y2="79.998"/>
	</g>
</g>
<g id="Text">
</g>
<g id="layer_3">
</g>
<g id="_x3C_Opacity_Mask_x3E_">
</g>
<g id="Isolation_Mode">
</g>
</svg>
