<?xml version="1.0" encoding="utf-8"?>
<!-- Generator: Adobe Illustrator 16.0.0, SVG Export Plug-In . SVG Version: 6.00 Build 0)  -->
<!DOCTYPE svg PUBLIC "-//W3C//DTD SVG 1.1//EN" "http://www.w3.org/Graphics/SVG/1.1/DTD/svg11.dtd">
<svg version="1.1" xmlns="http://www.w3.org/2000/svg" xmlns:xlink="http://www.w3.org/1999/xlink" x="0px" y="0px" width="135px"
	 height="56px" viewBox="0 0 135 56" enable-background="new 0 0 135 56" xml:space="preserve">
<g id="background">
</g>
<g id="maps">
</g>
<g id="Cubes">
</g>
<g id="Icons">
</g>
<g id="Text">
</g>
<g id="layer_3">
</g>
<g id="_x3C_Opacity_Mask_x3E_">
	<g>
		<path fill="#FFF5E8" d="M13.283,50.209H8.056V29.898H0.097v-3.979h13.187V50.209z M5.325,50.209H0.097V33.46h5.229V50.209z"/>
		<path fill="#FFF5E8" d="M30.355,25.918l-2.037,24.291H23.23l1.712-20.312h-8.884v-3.979H30.355z M21.287,55.993h-5.229v-22.07
			h5.229V55.993z"/>
		<path fill="#FFF5E8" d="M37.666,50.209h-5.229V25.918h5.229V50.209z"/>
		<path fill="#FFF5E8" d="M51.252,25.918l-3.979,24.291h-5.459l3.515-20.312h-6.061v-8.144h5.184v4.165H51.252z"/>
		<path fill="#FFF5E8" d="M66.235,50.209h-5.229V31.424c0-1.018-0.461-1.526-1.434-1.526h-1.435v20.312h-5.229V25.918h8.283
			c2.961,0,5.043,2.128,5.043,5.09V50.209z"/>
		<path fill="#FFF5E8" d="M82.406,50.209h-5.229V29.898h-7.959v-3.979h13.188V50.209z M74.446,50.209h-5.228V33.46h5.228V50.209z"/>
		<path fill="#FFF5E8" d="M35.792,24.297h-5.229V3.986h-2.868v15.686c0,3.1-1.526,4.626-4.533,4.626h-2.73v-3.979
			c0.416,0.047,0.74,0.047,0.926,0.047c0.74,0,1.111-0.37,1.111-1.156V3.986h-1.852V0.007h15.175V24.297z"/>
		<path fill="#FFF5E8" d="M43.797,13.795h-5.228V0.007h5.228V13.795z"/>
		<path fill="#FFF5E8" d="M53.143,24.297h-7.264v-3.979h2.037V3.986h-1.945V0.007h7.172V24.297z"/>
		<path fill="#FFF5E8" d="M65.495,18.746c0,1.48-0.37,2.729-1.155,3.793c-0.881,1.158-1.992,1.758-3.426,1.758h-5.922v-3.979h3.84
			c0.973,0,1.437-0.786,1.437-2.359V5.791c0-1.204-0.464-1.805-1.344-1.805h-3.841V0.007h5.83c3.055,0,4.581,1.85,4.581,5.599
			V18.746z"/>
		<path fill="#FFF5E8" d="M82.406,24.297h-5.229V3.986h-2.869v15.686c0,3.1-1.525,4.626-4.533,4.626h-2.729v-3.979
			c0.417,0.047,0.739,0.047,0.925,0.047c0.74,0,1.109-0.37,1.109-1.156V3.986h-1.85V0.007h15.176V24.297z"/>
		<path fill-rule="evenodd" clip-rule="evenodd" fill="#FFF5E8" d="M134.621,24.536V0.007h-24.529V7.18h-1.195V0.007H84.367V50.26
			h50.254V25.731h-7.173v-1.195H134.621z M108.896,10.766h1.195v7.173h-1.195V10.766z M91.583,25.731H84.41v-1.195h7.173V25.731z
			 M102.342,25.731h-7.173v-1.195h7.173V25.731z M110.092,50.218h-1.195v-7.173h1.195V50.218z M110.092,39.458h-1.195v-7.173h1.195
			V39.458z M113.102,25.731h-3.01v2.968h-1.195v-2.968h-2.968v-1.195h2.968v-3.01h1.195v3.01h3.01V25.731z M123.861,25.731h-7.173
			v-1.195h7.173V25.731z"/>
	</g>
</g>
<g id="Isolation_Mode">
</g>
</svg>
