<?xml version="1.0" encoding="utf-8"?>
<!-- Generator: Adobe Illustrator 16.0.0, SVG Export Plug-In . SVG Version: 6.00 Build 0)  -->
<!DOCTYPE svg PUBLIC "-//W3C//DTD SVG 1.1//EN" "http://www.w3.org/Graphics/SVG/1.1/DTD/svg11.dtd">
<svg version="1.1" xmlns="http://www.w3.org/2000/svg" xmlns:xlink="http://www.w3.org/1999/xlink" x="0px" y="0px" width="280px"
	 height="503px" viewBox="0 0 280 503" enable-background="new 0 0 280 503" xml:space="preserve">
<g id="background">
</g>
<g id="maps">
	<path fill="none" stroke="#B3ACA2" stroke-width="3" stroke-miterlimit="10" d="M133.276,499.809c0,0-4-9.834-4-13.334
		s0.833-7.5-0.833-10.666c-1.667-3.168-0.667-7.834-2.5-13.5c-1.833-5.668-25-72.834-25.833-75c-0.833-2.168-8-4.834-8-6.834
		s1.5-9.668,1.5-11c0-1.334-4.333-1-4.333-7.834c0-6.832-4.5-20-12.333-37.5s-12.667-40.166-15-46.666s-5.44-10.681-6.5-13.99
		c0,0,26.334-27.01,38.917-48.677c12.583-21.666,27.25-61.334,31.25-81c0,0,14.167-62.332,14.167-65c0-2.666,3.5-0.666,6,1
		c2.5,1.668,9.5-11.332,8.167-12.166s-1.833-0.666-1.333-6.166s4.667-18.168,4.667-18.168s18.833,0.334,21.5,0
		c2.667-0.332,1.5,5.668,5.333,5c3.833-0.666,7-3.666,12-3.832c5-0.168,4.333-1.668,6-3.834s2-5.242,2-8.871
		s1.333-16.795,4.833-13.963c3.5,2.834,3.5,7.168,4.833,5.5c1.333-1.666,17.833-11.332,19.333-11.332s-0.5,6.332,1.333,10.166
		s3.167,7,2.333,11.334c-0.833,4.332-5.167,9.166-0.833,10.166s4.667,9.166,5.333,12.666s3.5,8.502,1.5,12.668
		s-8.333,15.5-10.833,18.5s-10,3.666-11.833,8.666s-11,0.834-11,15.666c0,14.834-0.5,40.334-0.5,44c0,3.668-5.5,21.5-6.333,24
		s5.333,10.334,2.667,15c-2.667,4.668-1.167,6.834,0,11.334s-0.5,13.5-4.5,26.834c-4,13.333-3.5,22.499-3.167,25.999
		s-3,11.779-5.667,15.889c-2.667,4.111-6.333,8.945-0.833,14.611s5.5,10.832,2.333,16.666s-5.667,8.334-3.5,12
		c2.167,3.668-1.5,4.666-4.833,7.834c-3.333,3.166-3.667,5.168-4.167,8.334s-1.5,4.666-3.5,9.666s-6.833,15-10.167,25
		s-7,20-3.167,28.666c3.833,8.668-6.5,10.834-3.833,20.668c2.667,9.832,1.167,11.5-3,18.5s-4.666,14.332-4.333,20.332
		s-1.797,7.168-3.148,12c-1.352,4.834-2.685,9.834-2.685,14.334s2.833,8-1.5,10.666c-4.333,2.668-5.333,7.668-5.333,8.668
		L133.276,499.809z"/>
</g>
<g id="Cubes">
</g>
<g id="Icons">
</g>
<g id="Text">
</g>
<g id="layer_3">
</g>
<g id="_x3C_Opacity_Mask_x3E_">
</g>
<g id="Isolation_Mode">
</g>
</svg>
