<?xml version="1.0" encoding="utf-8"?>
<!-- Generator: Adobe Illustrator 16.0.0, SVG Export Plug-In . SVG Version: 6.00 Build 0)  -->
<!DOCTYPE svg PUBLIC "-//W3C//DTD SVG 1.1//EN" "http://www.w3.org/Graphics/SVG/1.1/DTD/svg11.dtd">
<svg version="1.1" xmlns="http://www.w3.org/2000/svg" xmlns:xlink="http://www.w3.org/1999/xlink" x="0px" y="0px" width="147px"
	 height="56px" viewBox="0 0 147 56" enable-background="new 0 0 147 56" xml:space="preserve">
<g id="background">
</g>
<g id="maps">
</g>
<g id="Cubes">
</g>
<g id="Icons">
</g>
<g id="Text">
</g>
<g id="layer_3">
</g>
<g id="_x3C_Opacity_Mask_x3E_">
</g>
<g id="Isolation_Mode">
	<g>
		<rect x="0.097" y="33.46" fill="#FFF5E8" width="5.229" height="16.749"/>
		<polygon fill="#FFF5E8" points="0.097,29.898 8.056,29.898 8.056,50.209 13.283,50.209 13.283,25.918 0.097,25.918 		"/>
		<polygon fill="#FFF5E8" points="16.059,29.898 24.942,29.898 23.23,50.209 28.318,50.209 30.355,25.918 16.059,25.918 		"/>
		<rect x="16.059" y="33.923" fill="#FFF5E8" width="5.229" height="22.07"/>
		<rect x="32.437" y="25.918" fill="#FFF5E8" width="5.229" height="24.291"/>
		<polygon fill="#FFF5E8" points="44.451,21.754 39.268,21.754 39.268,29.898 45.328,29.898 41.813,50.209 47.272,50.209 
			51.252,25.918 44.451,25.918 		"/>
		<path fill="#FFF5E8" d="M61.192,25.918h-8.283v24.291h5.229V29.898h1.435c0.973,0,1.434,0.509,1.434,1.526v18.785h5.229V31.008
			C66.235,28.047,64.153,25.918,61.192,25.918z"/>
		<polygon fill="#FFF5E8" points="69.219,29.898 77.178,29.898 77.178,50.209 82.406,50.209 82.406,25.918 69.219,25.918 		"/>
		<rect x="69.219" y="33.46" fill="#FFF5E8" width="5.228" height="16.749"/>
		<path fill="#FFF5E8" d="M35.792,24.297V0.007H20.617v3.979h1.852v15.223c0,0.787-0.371,1.156-1.111,1.156
			c-0.186,0-0.51,0-0.926-0.047v3.979h2.73c3.007,0,4.533-1.526,4.533-4.626V3.986h2.868v20.312H35.792z"/>
		<rect x="38.569" y="0.007" fill="#FFF5E8" width="5.228" height="13.788"/>
		<polygon fill="#FFF5E8" points="53.143,0.007 45.971,0.007 45.971,3.986 47.916,3.986 47.916,20.318 45.879,20.318 45.879,24.297 
			53.143,24.297 		"/>
		<path fill="#FFF5E8" d="M64.34,22.539c0.785-1.064,1.155-2.313,1.155-3.793V5.606c0-3.749-1.526-5.599-4.581-5.599h-5.83v3.979
			h3.841c0.88,0,1.344,0.602,1.344,1.805v12.167c0,1.573-0.464,2.359-1.437,2.359h-3.84v3.979h5.922
			C62.348,24.297,63.459,23.697,64.34,22.539z"/>
		<path fill="#FFF5E8" d="M67.23,3.986h1.85v15.223c0,0.787-0.369,1.156-1.109,1.156c-0.186,0-0.508,0-0.925-0.047v3.979h2.729
			c3.008,0,4.533-1.526,4.533-4.626V3.986h2.869v20.312h5.229V0.007H67.23V3.986z"/>
		<path fill="#FFF5E8" d="M146.499,25.136l-11.878-13.437V0.007h-24.529V7.18h-1.195V0.007H84.367V50.26h50.254V38.567
			L146.499,25.136z M108.896,10.766h1.195v7.173h-1.195V10.766z M91.583,25.731H84.41v-1.195h7.173V25.731z M102.342,25.731h-7.173
			v-1.195h7.173V25.731z M110.092,50.218h-1.195v-7.173h1.195V50.218z M110.092,39.458h-1.195v-7.173h1.195V39.458z M113.102,25.731
			h-3.01v2.968h-1.195v-2.968h-2.968v-1.195h2.968v-3.01h1.195v3.01h3.01V25.731z M123.861,25.731h-7.173v-1.195h7.173V25.731z
			 M127.448,24.536h7.063v1.195h-7.063V24.536z"/>
	</g>
</g>
</svg>
