<?xml version="1.0" encoding="utf-8"?>
<!-- Generator: Adobe Illustrator 16.0.0, SVG Export Plug-In . SVG Version: 6.00 Build 0)  -->
<!DOCTYPE svg PUBLIC "-//W3C//DTD SVG 1.1//EN" "http://www.w3.org/Graphics/SVG/1.1/DTD/svg11.dtd">
<svg version="1.1" xmlns="http://www.w3.org/2000/svg" xmlns:xlink="http://www.w3.org/1999/xlink" x="0px" y="0px" width="90px"
	 height="90px" viewBox="0 0 90 90" enable-background="new 0 0 90 90" xml:space="preserve">
<g id="background">
</g>
<g id="maps">
</g>
<g id="Cubes">
	<rect x="3.996" y="4" fill="#60DB98" width="82" height="82"/>
	<path fill="#33312E" d="M86,4v82H4V4H86 M90,0h-4H4H0v4v82v4h4h82h4v-4V4V0L90,0z"/>
</g>
<g id="Icons">
	<g>
		<polyline fill="none" stroke="#33312E" stroke-linecap="round" stroke-linejoin="round" stroke-miterlimit="10" points="
			36.515,45.759 41.276,37.087 45.694,44.494 		"/>
		<polyline fill="none" stroke="#33312E" stroke-linecap="round" stroke-linejoin="round" stroke-miterlimit="10" points="
			40.857,53.264 34.091,41.568 19.138,68.682 32.354,68.682 		"/>
		<polyline fill="none" stroke="#33312E" stroke-linecap="round" stroke-linejoin="round" stroke-miterlimit="10" points="
			40.725,53.506 50.554,35.685 70.825,68.682 50.687,68.682 49.779,68.682 32.354,68.682 		"/>
		
			<line fill="none" stroke="#33312E" stroke-linecap="round" stroke-linejoin="round" stroke-miterlimit="10" x1="40.857" y1="53.264" x2="32.354" y2="68.682"/>
		<polyline fill="none" stroke="#33312E" stroke-linecap="round" stroke-linejoin="round" stroke-miterlimit="10" points="
			43.672,48.55 47.454,51.11 51.132,49.231 54.557,51.11 58.08,48.55 		"/>
		<polyline fill="none" stroke="#33312E" stroke-linecap="round" stroke-linejoin="round" stroke-miterlimit="10" points="
			29.016,50.872 31.777,52.573 34.466,51.325 36.967,52.573 39.54,50.872 		"/>
	</g>
	<path fill="none" stroke="#33312E" stroke-linecap="round" stroke-linejoin="round" stroke-miterlimit="10" d="M71.101,46.546
		c0-14.284-11.641-25.864-26-25.864s-26,11.58-26,25.864"/>
</g>
<g id="Text">
</g>
<g id="layer_3">
	<path fill="#60DB98" stroke="#33312E" stroke-linecap="round" stroke-linejoin="round" stroke-miterlimit="10" d="M67.469,58.62
		c0.039-0.245,0.064-0.494,0.064-0.751c0-2.632-2.133-4.765-4.764-4.765c-2.228,0-4.092,1.529-4.614,3.594
		c-1.229,0.475-2.105,1.661-2.105,3.059c0,1.814,1.471,3.285,3.286,3.285c0.627,0,1.204-0.189,1.702-0.497v5.987h2.661v-4.576
		c0.495,0.305,1.076,0.484,1.702,0.484c1.814,0,3.285-1.471,3.285-3.285C68.687,60.127,68.206,59.223,67.469,58.62z"/>
</g>
<g id="_x3C_Opacity_Mask_x3E_">
</g>
<g id="Isolation_Mode">
</g>
</svg>
