<?xml version="1.0" encoding="utf-8"?>
<!-- Generator: Adobe Illustrator 16.0.0, SVG Export Plug-In . SVG Version: 6.00 Build 0)  -->
<!DOCTYPE svg PUBLIC "-//W3C//DTD SVG 1.1//EN" "http://www.w3.org/Graphics/SVG/1.1/DTD/svg11.dtd">
<svg version="1.1" xmlns="http://www.w3.org/2000/svg" xmlns:xlink="http://www.w3.org/1999/xlink" x="0px" y="0px" width="90px"
	 height="90px" viewBox="0 0 90 90" enable-background="new 0 0 90 90" xml:space="preserve">
<g id="background">
</g>
<g id="maps">
</g>
<g id="Cubes">
	<rect x="3.996" y="4" fill="#41B5D1" width="82" height="82"/>
	<path fill="#33312E" d="M86,4v82H4V4H86 M90,0h-4H4H0v4v82v4h4h82h4v-4V4V0L90,0z"/>
	<g>
		<g>
			<path fill="#41B5D1" stroke="#33312E" stroke-linecap="round" stroke-linejoin="round" stroke-miterlimit="10" d="M65.361,39.535
				c6.138,0,7.041-8.479,7.041-12.827c0-4.351,3.38-4.698,3.38-1.277c0,3.422,1.057,21.272-8.451,21.272L65.361,39.535z"/>
			<path fill="#41B5D1" stroke="#33312E" stroke-linecap="round" stroke-linejoin="round" stroke-miterlimit="10" d="M63.823,40.99
				c6.139,0,6.813-10.061,6.813-14.41c0-4.351,3.381-4.698,3.381-1.276c0,3.421,1.057,22.022-8.452,22.022L63.823,40.99z"/>
			<path fill="#41B5D1" stroke="#33312E" stroke-linecap="round" stroke-linejoin="round" stroke-miterlimit="10" d="M61.901,42.169
				c6.139,0,6.753-10.276,6.753-14.626c0-4.351,3.382-4.698,3.382-1.276c0,3.42,1.056,22.022-8.452,22.022L61.901,42.169z"/>
			<path fill="#41B5D1" stroke="#33312E" stroke-linecap="round" stroke-linejoin="round" stroke-miterlimit="10" d="M65.895,43.077
				c0,0,0.402-2.888,0.756-5.184c0.533-3.449-3.039-4.597-4.803-1.217c-2.85,5.46-7.295,5.307-7.762,8.079
				C53.66,47.28,65.895,43.077,65.895,43.077z"/>
			<path fill="#41B5D1" stroke="#33312E" stroke-linecap="round" stroke-linejoin="round" stroke-miterlimit="10" d="M46.954,68.49
				c0,0,0-10.264,0-17.319c0-9.193,8.651-9.835,13.089-9.835c6.139,0,6.139-6.102,6.139-10.45c0-4.35,3.381-4.698,3.381-1.276
				s1.025,19.638-8.451,19.638c-9.271,0-4.596,13.469-4.596,19.243H46.954z"/>
			<path fill="#41B5D1" stroke="#33312E" stroke-linecap="round" stroke-linejoin="round" stroke-miterlimit="10" d="M24.273,39.535
				c-6.138,0-7.041-8.479-7.041-12.827c0-4.351-3.38-4.698-3.38-1.277c0,3.422-1.057,21.272,8.451,21.272L24.273,39.535z"/>
			<path fill="#41B5D1" stroke="#33312E" stroke-linecap="round" stroke-linejoin="round" stroke-miterlimit="10" d="M25.812,40.99
				c-6.139,0-6.813-10.061-6.813-14.41c0-4.351-3.381-4.698-3.381-1.276c0,3.421-1.057,22.022,8.452,22.022L25.812,40.99z"/>
			<path fill="#41B5D1" stroke="#33312E" stroke-linecap="round" stroke-linejoin="round" stroke-miterlimit="10" d="M27.732,42.169
				c-6.138,0-6.753-10.276-6.753-14.626c0-4.351-3.381-4.698-3.381-1.276c0,3.42-1.056,22.022,8.452,22.022L27.732,42.169z"/>
			<path fill="#41B5D1" stroke="#33312E" stroke-linecap="round" stroke-linejoin="round" stroke-miterlimit="10" d="M23.74,43.077
				c0,0-0.402-2.888-0.756-5.184c-0.534-3.449,3.039-4.597,4.803-1.217c2.85,5.46,7.294,5.307,7.762,8.079
				C35.975,47.28,23.74,43.077,23.74,43.077z"/>
			<path fill="#41B5D1" stroke="#33312E" stroke-linecap="round" stroke-linejoin="round" stroke-miterlimit="10" d="M42.681,68.49
				c0,0,0-10.264,0-17.319c0-9.193-8.652-9.835-13.089-9.835c-6.14,0-6.14-6.102-6.14-10.45c0-4.35-3.38-4.698-3.38-1.276
				s-1.025,19.638,8.451,19.638c9.271,0,4.596,13.469,4.596,19.243H42.681z"/>
		</g>
		<polygon fill="none" stroke="#33312E" stroke-linecap="round" stroke-linejoin="round" stroke-miterlimit="10" points="
			44.817,20.49 47.514,25.244 52.931,25.23 50.211,29.971 52.931,34.711 47.514,34.696 44.817,39.451 42.12,34.696 36.704,34.711 
			39.424,29.971 36.704,25.23 42.12,25.244 		"/>
	</g>
</g>
<g id="Icons">
</g>
<g id="Text">
</g>
<g id="layer_3">
</g>
<g id="_x3C_Opacity_Mask_x3E_">
</g>
<g id="Isolation_Mode">
</g>
</svg>
