<?xml version="1.0" encoding="utf-8"?>
<!-- Generator: Adobe Illustrator 16.0.0, SVG Export Plug-In . SVG Version: 6.00 Build 0)  -->
<!DOCTYPE svg PUBLIC "-//W3C//DTD SVG 1.1//EN" "http://www.w3.org/Graphics/SVG/1.1/DTD/svg11.dtd">
<svg version="1.1" xmlns="http://www.w3.org/2000/svg" xmlns:xlink="http://www.w3.org/1999/xlink" x="0px" y="0px" width="90px"
	 height="90px" viewBox="0 0 90 90" enable-background="new 0 0 90 90" xml:space="preserve">
<g id="background">
</g>
<g id="maps">
</g>
<g id="Cubes">
	<rect x="3.993" y="4" fill="#70BA72" width="82" height="82"/>
	<path fill="#33312E" d="M86,4v82H4V4H86 M90,0h-4H4H0v4v82v4h4h82h4v-4V4V0L90,0z"/>
	<g>
		<polygon fill="#70BA72" stroke="#33312E" stroke-linecap="round" stroke-linejoin="round" stroke-miterlimit="10" points="
			44.534,23.332 14.034,38.872 44.534,51.482 75.034,38.872 		"/>
		<path fill="#70BA72" stroke="#33312E" stroke-linecap="round" stroke-linejoin="round" stroke-miterlimit="10" d="M58.539,39.134
			c0-2.686-5.703-4.861-14.026-4.861c-8.326,0-14.029,2.176-14.029,4.861c0,0.06-1.019,9.568-1.019,9.568l14.922,2.146l15.217-2.146
			L58.539,39.134z"/>
		
			<line fill="none" stroke="#33312E" stroke-linecap="round" stroke-linejoin="round" stroke-miterlimit="10" x1="44.513" y1="53.562" x2="44.513" y2="65.563"/>
		<g>
			
				<line fill="none" stroke="#33312E" stroke-linecap="round" stroke-linejoin="round" stroke-miterlimit="10" x1="43.021" y1="65.796" x2="46.007" y2="65.796"/>
			
				<line fill="none" stroke="#33312E" stroke-linecap="round" stroke-linejoin="round" stroke-miterlimit="10" x1="44.513" y1="65.796" x2="43.021" y2="68.805"/>
			
				<line fill="none" stroke="#33312E" stroke-linecap="round" stroke-linejoin="round" stroke-miterlimit="10" x1="44.513" y1="65.796" x2="44.513" y2="69.332"/>
			
				<line fill="none" stroke="#33312E" stroke-linecap="round" stroke-linejoin="round" stroke-miterlimit="10" x1="44.513" y1="65.796" x2="46.007" y2="68.805"/>
		</g>
		<path fill="#70BA72" stroke="#33312E" stroke-linecap="round" stroke-linejoin="round" stroke-miterlimit="10" d="M59.492,47.7
			c0,0-10.089-3.164-14.959,1.668h-0.021c-4.87-4.832-14.938-1.674-14.938-1.674l-0.137,1.01c0,2.683,6.75,4.857,15.076,4.857
			c8.323,0,15.073-2.175,15.073-4.857L59.492,47.7z"/>
	</g>
</g>
<g id="Icons">
</g>
<g id="Text">
</g>
<g id="layer_3">
</g>
<g id="_x3C_Opacity_Mask_x3E_">
</g>
<g id="Isolation_Mode">
</g>
</svg>
