<?xml version="1.0" encoding="utf-8"?>
<!-- Generator: Adobe Illustrator 16.0.0, SVG Export Plug-In . SVG Version: 6.00 Build 0)  -->
<!DOCTYPE svg PUBLIC "-//W3C//DTD SVG 1.1//EN" "http://www.w3.org/Graphics/SVG/1.1/DTD/svg11.dtd">
<svg version="1.1" xmlns="http://www.w3.org/2000/svg" xmlns:xlink="http://www.w3.org/1999/xlink" x="0px" y="0px" width="90px"
	 height="90px" viewBox="0 0 90 90" enable-background="new 0 0 90 90" xml:space="preserve">
<g id="background">
</g>
<g id="maps">
</g>
<g id="Cubes">
	<rect x="4.002" y="4.003" fill="#5392C7" width="82" height="82"/>
	<path fill="#33312E" d="M86,4v82H4V4H86 M90,0h-4H4H0v4v82v4h4h82h4v-4V4V0L90,0z"/>
</g>
<g id="Icons">
</g>
<g id="Text">
</g>
<g id="layer_3">
	<g>
		<path fill="none" stroke="#33312E" stroke-linecap="round" stroke-linejoin="round" stroke-miterlimit="10" d="M44.417,18.003
			l-0.006-0.002c0,0-9.139,5.651-22.994,5.655c0,0,1.047,36.769,22.994,48.342l0.006,0.003C44.421,72,44.421,72,44.421,72
			c21.952-11.573,22.996-48.344,22.996-48.344C53.558,23.652,44.417,18.003,44.417,18.003z M44.856,68.58l-0.003-47.154
			c3.027,1.529,9.671,4.533,19.323,5.113C63.398,34.982,60.291,59.143,44.856,68.58z"/>
	</g>
</g>
<g id="_x3C_Opacity_Mask_x3E_">
</g>
<g id="Isolation_Mode">
</g>
</svg>
