<?xml version="1.0" encoding="utf-8"?>
<!-- Generator: Adobe Illustrator 16.0.0, SVG Export Plug-In . SVG Version: 6.00 Build 0)  -->
<!DOCTYPE svg PUBLIC "-//W3C//DTD SVG 1.1//EN" "http://www.w3.org/Graphics/SVG/1.1/DTD/svg11.dtd">
<svg version="1.1" xmlns="http://www.w3.org/2000/svg" xmlns:xlink="http://www.w3.org/1999/xlink" x="0px" y="0px" width="90px"
	 height="90px" viewBox="0 0 90 90" enable-background="new 0 0 90 90" xml:space="preserve">
<g id="background">
</g>
<g id="maps">
</g>
<g id="Cubes">
	<rect x="4" y="4" fill="#AED65E" width="82" height="82"/>
	<path fill="#33312E" d="M86,4v82H4V4H86 M90,0h-4H4H0v4v82v4h4h82h4v-4V4V0L90,0z"/>
</g>
<g id="Icons">
</g>
<g id="Text">
</g>
<g id="layer_3">
	<g>
		
			<line fill="none" stroke="#33312E" stroke-linecap="round" stroke-linejoin="round" stroke-miterlimit="10" x1="16.526" y1="40.245" x2="74.526" y2="40.245"/>
		
			<line fill="none" stroke="#33312E" stroke-linecap="round" stroke-linejoin="round" stroke-miterlimit="10" x1="44.647" y1="40.245" x2="44.647" y2="68.607"/>
		
			<line fill="none" stroke="#33312E" stroke-linecap="round" stroke-linejoin="round" stroke-miterlimit="10" x1="42.227" y1="40.245" x2="39.218" y2="68.607"/>
		
			<line fill="none" stroke="#33312E" stroke-linecap="round" stroke-linejoin="round" stroke-miterlimit="10" x1="39.218" y1="40.245" x2="33.827" y2="68.607"/>
		
			<line fill="none" stroke="#33312E" stroke-linecap="round" stroke-linejoin="round" stroke-miterlimit="10" x1="35.958" y1="40.245" x2="28.061" y2="68.607"/>
		
			<line fill="none" stroke="#33312E" stroke-linecap="round" stroke-linejoin="round" stroke-miterlimit="10" x1="32.949" y1="40.245" x2="22.042" y2="68.607"/>
		
			<line fill="none" stroke="#33312E" stroke-linecap="round" stroke-linejoin="round" stroke-miterlimit="10" x1="29.94" y1="40.245" x2="16.526" y2="68.607"/>
		
			<line fill="none" stroke="#33312E" stroke-linecap="round" stroke-linejoin="round" stroke-miterlimit="10" x1="26.556" y1="40.245" x2="16.526" y2="58.191"/>
		
			<line fill="none" stroke="#33312E" stroke-linecap="round" stroke-linejoin="round" stroke-miterlimit="10" x1="23.233" y1="40.245" x2="16.526" y2="49.219"/>
		
			<line fill="none" stroke="#33312E" stroke-linecap="round" stroke-linejoin="round" stroke-miterlimit="10" x1="47.069" y1="40.245" x2="50.078" y2="68.607"/>
		
			<line fill="none" stroke="#33312E" stroke-linecap="round" stroke-linejoin="round" stroke-miterlimit="10" x1="50.078" y1="40.245" x2="55.469" y2="68.607"/>
		
			<line fill="none" stroke="#33312E" stroke-linecap="round" stroke-linejoin="round" stroke-miterlimit="10" x1="53.337" y1="40.245" x2="61.235" y2="68.607"/>
		
			<line fill="none" stroke="#33312E" stroke-linecap="round" stroke-linejoin="round" stroke-miterlimit="10" x1="56.347" y1="40.245" x2="67.253" y2="68.607"/>
		
			<line fill="none" stroke="#33312E" stroke-linecap="round" stroke-linejoin="round" stroke-miterlimit="10" x1="59.354" y1="40.245" x2="72.77" y2="68.607"/>
		
			<line fill="none" stroke="#33312E" stroke-linecap="round" stroke-linejoin="round" stroke-miterlimit="10" x1="62.74" y1="40.245" x2="72.77" y2="58.191"/>
		
			<line fill="none" stroke="#33312E" stroke-linecap="round" stroke-linejoin="round" stroke-miterlimit="10" x1="66.063" y1="40.245" x2="72.77" y2="49.219"/>
		
			<circle fill="none" stroke="#33312E" stroke-linecap="round" stroke-linejoin="round" stroke-miterlimit="10" cx="62.74" cy="27.38" r="5.015"/>
		<path fill="none" stroke="#33312E" stroke-linecap="round" stroke-linejoin="round" stroke-miterlimit="10" d="M36.238,27.629
			c0.049-0.313,0.082-0.63,0.082-0.957c0-3.349-2.713-6.064-6.059-6.064c-2.831,0-5.202,1.947-5.866,4.574
			c-1.564,0.605-2.678,2.115-2.678,3.894c0,2.311,1.87,4.183,4.178,4.183c0.799,0,1.532-0.242,2.165-0.633v7.62h3.385v-5.824
			c0.63,0.388,1.368,0.616,2.163,0.616c2.308,0,4.179-1.872,4.179-4.183C37.787,29.548,37.176,28.396,36.238,27.629z"/>
	</g>
</g>
<g id="_x3C_Opacity_Mask_x3E_">
</g>
<g id="Isolation_Mode">
</g>
</svg>
