<?xml version="1.0" encoding="utf-8"?>
<!-- Generator: Adobe Illustrator 16.0.0, SVG Export Plug-In . SVG Version: 6.00 Build 0)  -->
<!DOCTYPE svg PUBLIC "-//W3C//DTD SVG 1.1//EN" "http://www.w3.org/Graphics/SVG/1.1/DTD/svg11.dtd">
<svg version="1.1" xmlns="http://www.w3.org/2000/svg" xmlns:xlink="http://www.w3.org/1999/xlink" x="0px" y="0px" width="90px"
	 height="90px" viewBox="0 0 90 90" enable-background="new 0 0 90 90" xml:space="preserve">
<g id="background">
</g>
<g id="maps">
</g>
<g id="Cubes">
	<rect x="4.002" y="4" fill="#F06A5C" width="82" height="82"/>
	<path fill="#33312E" d="M86,4v82H4V4H86 M90,0h-4H4H0v4v82v4h4h82h4v-4V4V0L90,0z"/>
</g>
<g id="Icons">
	<g>
		<g>
			<path fill="none" stroke="#33312E" stroke-linecap="round" stroke-linejoin="round" stroke-miterlimit="10" d="M71.903,62.3
				c0,3.685-3.016,6.701-6.701,6.701H23.604c-3.686,0-6.701-3.016-6.701-6.701V37.126c0-3.685,3.016-6.701,6.701-6.701h41.598
				c3.686,0,6.701,3.016,6.701,6.701V62.3z"/>
		</g>
		<polygon fill="none" stroke="#33312E" stroke-linecap="round" stroke-linejoin="round" stroke-miterlimit="10" points="
			53.473,46.7 47.44,46.7 47.44,40.711 41.367,40.711 41.367,46.7 35.333,46.7 35.333,52.728 41.367,52.728 41.367,58.715 
			47.44,58.715 47.44,52.728 53.473,52.728 		"/>
		<g>
			<path fill="none" stroke="#33312E" stroke-linecap="round" stroke-linejoin="round" stroke-miterlimit="10" d="M54.892,30.425
				V22.34c0-0.737-0.604-1.34-1.34-1.34H35.255c-0.736,0-1.34,0.603-1.34,1.34v8.085"/>
		</g>
		
			<line fill="none" stroke="#33312E" stroke-linecap="round" stroke-linejoin="round" stroke-miterlimit="10" stroke-dasharray="3.3505,3.3505" x1="63.396" y1="30.988" x2="63.396" y2="68.999"/>
		
			<line fill="none" stroke="#33312E" stroke-linecap="round" stroke-linejoin="round" stroke-miterlimit="10" stroke-dasharray="3.3505,3.3505" x1="25.411" y1="30.988" x2="25.411" y2="68.999"/>
	</g>
</g>
<g id="Text">
</g>
<g id="layer_3">
</g>
<g id="_x3C_Opacity_Mask_x3E_">
</g>
<g id="Isolation_Mode">
</g>
</svg>
