<?xml version="1.0" encoding="utf-8"?>
<!-- Generator: Adobe Illustrator 16.0.0, SVG Export Plug-In . SVG Version: 6.00 Build 0)  -->
<!DOCTYPE svg PUBLIC "-//W3C//DTD SVG 1.1//EN" "http://www.w3.org/Graphics/SVG/1.1/DTD/svg11.dtd">
<svg version="1.1" xmlns="http://www.w3.org/2000/svg" xmlns:xlink="http://www.w3.org/1999/xlink" x="0px" y="0px" width="90px"
	 height="90px" viewBox="0 0 90 90" enable-background="new 0 0 90 90" xml:space="preserve">
<g id="background">
</g>
<g id="maps">
</g>
<g id="Cubes">
	<rect x="3.756" y="4.003" fill="#FCBF68" width="82" height="82"/>
	<path fill="#33312E" d="M86,4v82H4V4H86 M90,0h-4H4H0v4v82v4h4h82h4v-4V4V0L90,0z"/>
</g>
<g id="Icons">
</g>
<g id="Text">
</g>
<g id="layer_3">
	<g>
		<g>
			<path fill="none" stroke="#33312E" stroke-linecap="round" stroke-linejoin="round" stroke-miterlimit="10" d="M60.606,51.256
				c0.712-1.265,1.118-2.725,1.118-4.278c0-4.109-2.842-7.561-6.679-8.517"/>
			<path fill="none" stroke="#33312E" stroke-linecap="round" stroke-linejoin="round" stroke-miterlimit="10" d="M48.567,54.638
				c1.278,0.716,2.752,1.121,4.322,1.121c1.829,0,3.529-0.553,4.94-1.5"/>
			<path fill="none" stroke="#33312E" stroke-linecap="round" stroke-linejoin="round" stroke-miterlimit="10" d="M45.046,42.934
				c-0.635,1.212-0.991,2.586-0.991,4.044c0,2.228,0.832,4.26,2.205,5.808"/>
			<path fill="none" stroke="#33312E" stroke-linecap="round" stroke-linejoin="round" stroke-miterlimit="10" d="M52.453,38.209
				c-2.368,0.114-4.493,1.156-6.012,2.767"/>
			
				<line fill="none" stroke="#33312E" stroke-linecap="round" stroke-linejoin="round" stroke-miterlimit="10" x1="47.66" y1="46.243" x2="56.45" y2="43.391"/>
			
				<line fill="none" stroke="#33312E" stroke-linecap="round" stroke-linejoin="round" stroke-miterlimit="10" x1="48.47" y1="48.404" x2="57.26" y2="45.553"/>
			
				<line fill="none" stroke="#33312E" stroke-linecap="round" stroke-linejoin="round" stroke-miterlimit="10" x1="49.279" y1="50.566" x2="58.071" y2="47.715"/>
		</g>
		<rect x="25.365" y="16.02" fill="none" stroke="#33312E" stroke-miterlimit="10" width="39.393" height="52.882"/>
		<path fill="none" stroke="#33312E" stroke-miterlimit="10" d="M21.511,30.562"/>
		<polyline fill="none" stroke="#33312E" stroke-miterlimit="10" points="20.562,67.196 22.461,69.243 67.663,69.243 69.562,67.196 
					"/>
		<polyline fill="none" stroke="#33312E" stroke-miterlimit="10" points="20.562,67.196 21.511,71.02 68.612,71.02 69.562,67.196 		
			"/>
		<g>
			<path fill="#FCBF68" d="M59.006,62.86c0-0.55-0.45-1-1-1H31.052c-0.55,0-1,0.45-1,1v5.302c0,0.55,0.45,1,1,1h26.954
				c0.55,0,1-0.45,1-1V62.86z"/>
			<path fill="none" stroke="#33312E" stroke-miterlimit="10" d="M59.006,62.86c0-0.55-0.45-1-1-1H31.052c-0.55,0-1,0.45-1,1v5.302
				c0,0.55,0.45,1,1,1h26.954c0.55,0,1-0.45,1-1V62.86z"/>
		</g>
		<path fill="#FCBF68" stroke="#33312E" stroke-miterlimit="10" d="M55.627,61.971c0,0-8.206-3.753-8.206-19.034h-5.824
			c0,15.281-8.207,19.034-8.207,19.034H55.627z"/>
		<path fill="none" stroke="#33312E" stroke-linecap="round" stroke-linejoin="round" stroke-miterlimit="10" d="M43.983,46.479
			c0,0-0.521,7.951-2.953,11.491"/>
		
			<line fill="none" stroke="#33312E" stroke-linecap="round" stroke-linejoin="round" stroke-miterlimit="10" x1="32.087" y1="64.44" x2="56.542" y2="64.44"/>
		<line fill="none" stroke="#33312E" stroke-miterlimit="10" x1="32.087" y1="23.716" x2="57.763" y2="23.716"/>
		<line fill="none" stroke="#33312E" stroke-miterlimit="10" x1="32.087" y1="29.923" x2="57.763" y2="29.923"/>
		<path fill="#FCBF68" stroke="#33312E" stroke-miterlimit="10" d="M50.884,26.896c0-3.487-2.845-6.314-6.356-6.314
			c-3.511,0-6.353,2.827-6.353,6.314l2.562,16.04h7.585L50.884,26.896z"/>
		
			<line fill="none" stroke="#33312E" stroke-linecap="round" stroke-linejoin="round" stroke-miterlimit="10" x1="41.597" y1="27.18" x2="43.463" y2="40.901"/>
	</g>
</g>
<g id="_x3C_Opacity_Mask_x3E_">
</g>
<g id="Isolation_Mode">
</g>
</svg>
