<?xml version="1.0" encoding="utf-8"?>
<!-- Generator: Adobe Illustrator 16.0.0, SVG Export Plug-In . SVG Version: 6.00 Build 0)  -->
<!DOCTYPE svg PUBLIC "-//W3C//DTD SVG 1.1//EN" "http://www.w3.org/Graphics/SVG/1.1/DTD/svg11.dtd">
<svg version="1.1" xmlns="http://www.w3.org/2000/svg" xmlns:xlink="http://www.w3.org/1999/xlink" x="0px" y="0px" width="40px"
	 height="40px" viewBox="0 0 40 40" enable-background="new 0 0 40 40" xml:space="preserve">
<g id="background">
</g>
<g id="maps">
</g>
<g id="Cubes">
</g>
<g id="Icons">
</g>
<g id="Text">
</g>
<g id="layer_3">
</g>
<g id="_x3C_Opacity_Mask_x3E_">
</g>
<g id="Isolation_Mode">
	<g>
		<g>
			<path fill="#33312E" d="M20,39.042C9.5,39.042,0.958,30.5,0.958,20S9.5,0.958,20,0.958S39.042,9.5,39.042,20
				S30.5,39.042,20,39.042z M20,13.958c-3.332,0-6.042,2.71-6.042,6.042s2.71,6.042,6.042,6.042s6.042-2.71,6.042-6.042
				S23.332,13.958,20,13.958z"/>
		</g>
		<g>
			<path fill="#403D3A" d="M20,36.542c-9.121,0-16.542-7.421-16.542-16.542S10.879,3.458,20,3.458S36.542,10.879,36.542,20
				S29.121,36.542,20,36.542z M20,11.458c-4.71,0-8.542,3.832-8.542,8.542S15.29,28.542,20,28.542S28.542,24.71,28.542,20
				S24.71,11.458,20,11.458z"/>
		</g>
		<g>
			<path fill="#B3ACA2" d="M20,34.042c-7.743,0-14.042-6.299-14.042-14.042S12.257,5.958,20,5.958S34.042,12.257,34.042,20
				S27.743,34.042,20,34.042z M20,8.958C13.912,8.958,8.958,13.911,8.958,20S13.912,31.042,20,31.042S31.042,26.089,31.042,20
				S26.088,8.958,20,8.958z"/>
		</g>
	</g>
</g>
</svg>
