<?xml version="1.0" encoding="utf-8"?>
<!-- Generator: Adobe Illustrator 16.0.0, SVG Export Plug-In . SVG Version: 6.00 Build 0)  -->
<!DOCTYPE svg PUBLIC "-//W3C//DTD SVG 1.1//EN" "http://www.w3.org/Graphics/SVG/1.1/DTD/svg11.dtd">
<svg version="1.1" xmlns="http://www.w3.org/2000/svg" xmlns:xlink="http://www.w3.org/1999/xlink" x="0px" y="0px" width="194px"
	 height="194px" viewBox="0 0 194 194" enable-background="new 0 0 194 194" xml:space="preserve">
<g id="background">
</g>
<g id="maps">
</g>
<g id="Cubes">
</g>
<g id="Icons">
</g>
<g id="Text">
</g>
<g id="layer_3">
	<g>
		<rect fill-rule="evenodd" clip-rule="evenodd" fill="#FFBD47" width="194" height="193.994"/>
		<g opacity="0.2">
			<path d="M189,5.004V189H5V5.004H189 M194,0.004H0V194h194V0.004L194,0.004z"/>
		</g>
		<g>
			<rect x="105.278" y="62.225" fill="#FFBD47" stroke="#33312E" stroke-miterlimit="10" width="20.252" height="12.16"/>
			<line fill="#FFBD47" stroke="#33312E" stroke-miterlimit="10" x1="64.39" y1="116.26" x2="125.53" y2="116.26"/>
			<line fill="#FFBD47" stroke="#33312E" stroke-miterlimit="10" x1="108.325" y1="66.639" x2="122.318" y2="66.639"/>
			<line fill="#FFBD47" stroke="#33312E" stroke-miterlimit="10" x1="108.325" y1="70.346" x2="122.318" y2="70.346"/>
			<rect x="123.234" y="74.385" fill="#FFBD47" stroke="#33312E" stroke-miterlimit="10" width="2.296" height="41.443"/>
			<path fill="#FFBD47" stroke="#33312E" stroke-miterlimit="10" d="M64.39,108.709h61.14V79.632c0,0-23.369,0-41.861,0
				S64.39,95.563,64.39,100.315C64.39,105.068,64.39,108.709,64.39,108.709z"/>
			<path fill="#FFBD47" stroke="#33312E" stroke-miterlimit="10" d="M69.757,95.542h19.2V85.345c0,0-5.956,0-8.955,0
				C72.069,85.345,69.757,95.542,69.757,95.542z"/>
			<circle fill="#FFBD47" stroke="#33312E" stroke-miterlimit="10" cx="78.004" cy="108.709" r="6.83"/>
			<circle fill="#FFBD47" stroke="#33312E" stroke-miterlimit="10" cx="78.004" cy="108.709" r="3.317"/>
			<circle fill="#FFBD47" stroke="#33312E" stroke-miterlimit="10" cx="113.433" cy="108.709" r="6.83"/>
			<rect x="105.278" y="85.345" fill="#FFBD47" stroke="#33312E" stroke-miterlimit="10" width="17.04" height="10.218"/>
			<rect x="92.332" y="85.345" fill="#FFBD47" stroke="#33312E" stroke-miterlimit="10" width="9.519" height="23.364"/>
			<circle fill="#FFBD47" stroke="#33312E" stroke-miterlimit="10" cx="113.433" cy="108.709" r="3.317"/>
			<line fill="#FFBD47" stroke="#33312E" stroke-miterlimit="10" x1="84.834" y1="95.542" x2="87.021" y2="90.972"/>
			<line fill="#FFBD47" stroke="#33312E" stroke-miterlimit="10" x1="77.569" y1="95.542" x2="79.756" y2="90.972"/>
			<line fill="#FFBD47" stroke="#33312E" stroke-miterlimit="10" x1="106.603" y1="95.542" x2="108.79" y2="90.972"/>
			<line fill="#FFBD47" stroke="#33312E" stroke-miterlimit="10" x1="111.611" y1="95.542" x2="113.797" y2="90.972"/>
			<line fill="#FFBD47" stroke="#33312E" stroke-miterlimit="10" x1="116.618" y1="95.542" x2="118.805" y2="90.972"/>
		</g>
	</g>
</g>
<g id="_x3C_Opacity_Mask_x3E_">
</g>
<g id="Isolation_Mode">
</g>
</svg>
