<?xml version="1.0" encoding="utf-8"?>
<!-- Generator: Adobe Illustrator 16.0.0, SVG Export Plug-In . SVG Version: 6.00 Build 0)  -->
<!DOCTYPE svg PUBLIC "-//W3C//DTD SVG 1.1//EN" "http://www.w3.org/Graphics/SVG/1.1/DTD/svg11.dtd">
<svg version="1.1" xmlns="http://www.w3.org/2000/svg" xmlns:xlink="http://www.w3.org/1999/xlink" x="0px" y="0px" width="187px"
	 height="38px" viewBox="0 0 187 38" enable-background="new 0 0 187 38" xml:space="preserve">
<g id="background">
</g>
<g id="maps">
</g>
<g id="Cubes">
</g>
<g id="Icons">
</g>
<g id="Text">
	<g>
		<path fill="#B3ACA2" d="M10.252,28.213H5.778v-0.9c0.54-0.42,1.392-1.163,2.567-2.242c0.527-0.492,0.791-0.947,0.791-1.379
			c0-0.744-0.491-1.115-1.487-1.115c-0.731,0-1.307,0.203-1.738,0.6v-0.984c0.432-0.299,1.007-0.455,1.738-0.455
			c1.667,0,2.495,0.647,2.495,1.955c0,0.588-0.396,1.223-1.199,1.906l-1.344,1.164c-0.252,0.228-0.539,0.443-0.839,0.671h3.489
			V28.213z"/>
		<path fill="#B3ACA2" d="M13.962,28.393c-0.84,0-1.464-0.372-1.859-1.104c-0.3-0.564-0.456-1.308-0.456-2.23
			c0-0.924,0.156-1.668,0.468-2.231c0.396-0.731,1.008-1.091,1.859-1.091c0.839,0,1.463,0.371,1.858,1.104
			c0.3,0.563,0.456,1.307,0.456,2.23C16.288,27.289,15.509,28.393,13.962,28.393z M13.974,22.551c-0.888,0-1.331,0.84-1.331,2.508
			c0,1.666,0.443,2.506,1.331,2.506c0.875,0,1.319-0.84,1.319-2.506C15.293,23.391,14.849,22.551,13.974,22.551z"/>
		<path fill="#B3ACA2" d="M19.841,28.393c-0.839,0-1.463-0.372-1.858-1.104c-0.3-0.564-0.456-1.308-0.456-2.23
			c0-0.924,0.156-1.668,0.468-2.231c0.396-0.731,1.008-1.091,1.859-1.091c0.839,0,1.463,0.371,1.858,1.104
			c0.3,0.563,0.456,1.307,0.456,2.23C22.168,27.289,21.389,28.393,19.841,28.393z M19.854,22.551c-0.888,0-1.331,0.84-1.331,2.508
			c0,1.666,0.443,2.506,1.331,2.506c0.875,0,1.319-0.84,1.319-2.506C21.173,23.391,20.729,22.551,19.854,22.551z"/>
		<path fill="#B3ACA2" d="M27.305,27.949c-0.396,0.299-0.924,0.443-1.583,0.443c-1.5,0-2.243-0.624-2.243-1.871
			c0-0.779,0.491-1.487,1.247-1.643c-0.636-0.156-1.079-0.756-1.079-1.428c0-0.552,0.216-0.983,0.647-1.295
			c0.384-0.276,0.863-0.42,1.428-0.42c0.575,0,1.055,0.144,1.427,0.42c0.42,0.312,0.636,0.743,0.636,1.295
			c0,0.672-0.432,1.271-1.067,1.428c0.768,0.155,1.247,0.814,1.247,1.619C27.964,27.133,27.748,27.625,27.305,27.949z
			 M25.722,25.238c-0.72,0-1.26,0.455-1.26,1.163c0,0.815,0.42,1.224,1.26,1.224c0.839,0,1.259-0.408,1.259-1.224
			C26.98,25.682,26.44,25.238,25.722,25.238z M25.722,22.504c-0.612,0-1.092,0.396-1.092,0.982c0,0.637,0.456,1.044,1.092,1.044
			c0.635,0,1.091-0.407,1.091-1.044C26.813,22.911,26.309,22.504,25.722,22.504z"/>
	</g>
	<g>
		<path fill="#B3ACA2" d="M41.502,28.213h-4.474v-0.9c0.54-0.42,1.392-1.163,2.567-2.242c0.527-0.492,0.791-0.947,0.791-1.379
			c0-0.744-0.491-1.115-1.487-1.115c-0.731,0-1.307,0.203-1.738,0.6v-0.984c0.432-0.299,1.007-0.455,1.738-0.455
			c1.667,0,2.495,0.647,2.495,1.955c0,0.588-0.396,1.223-1.199,1.906l-1.344,1.164c-0.252,0.228-0.539,0.443-0.839,0.671h3.489
			V28.213z"/>
		<path fill="#B3ACA2" d="M45.212,28.393c-0.84,0-1.464-0.372-1.859-1.104c-0.3-0.564-0.456-1.308-0.456-2.23
			c0-0.924,0.156-1.668,0.468-2.231c0.396-0.731,1.008-1.091,1.859-1.091c0.839,0,1.463,0.371,1.858,1.104
			c0.3,0.563,0.456,1.307,0.456,2.23C47.538,27.289,46.759,28.393,45.212,28.393z M45.224,22.551c-0.888,0-1.331,0.84-1.331,2.508
			c0,1.666,0.443,2.506,1.331,2.506c0.875,0,1.319-0.84,1.319-2.506C46.543,23.391,46.099,22.551,45.224,22.551z"/>
		<path fill="#B3ACA2" d="M51.091,28.393c-0.839,0-1.463-0.372-1.858-1.104c-0.3-0.564-0.456-1.308-0.456-2.23
			c0-0.924,0.156-1.668,0.468-2.231c0.396-0.731,1.008-1.091,1.859-1.091c0.839,0,1.463,0.371,1.858,1.104
			c0.3,0.563,0.456,1.307,0.456,2.23C53.418,27.289,52.639,28.393,51.091,28.393z M51.104,22.551c-0.888,0-1.331,0.84-1.331,2.508
			c0,1.666,0.443,2.506,1.331,2.506c0.875,0,1.319-0.84,1.319-2.506C52.423,23.391,51.979,22.551,51.104,22.551z"/>
		<path fill="#B3ACA2" d="M56.432,28.393c-0.731,0-1.212-0.133-1.439-0.396v-0.936c0.132,0.156,0.348,0.289,0.66,0.385
			c0.264,0.084,0.527,0.119,0.779,0.119c0.6,0,1.056-0.24,1.367-0.731c0.252-0.407,0.384-0.923,0.384-1.56v-0.096
			c-0.252,0.469-0.852,0.779-1.392,0.779c-0.684,0-1.223-0.168-1.595-0.516c-0.396-0.359-0.6-0.875-0.6-1.559
			c0-0.636,0.204-1.151,0.623-1.547c0.42-0.396,0.96-0.6,1.596-0.6c0.827,0,1.439,0.312,1.835,0.936
			c0.323,0.516,0.491,1.211,0.491,2.086C59.142,27.182,58.242,28.393,56.432,28.393z M56.815,22.563
			c-0.779,0-1.224,0.516-1.224,1.319c0,0.779,0.456,1.283,1.224,1.283s1.211-0.516,1.211-1.283
			C58.026,23.079,57.595,22.563,56.815,22.563z"/>
	</g>
	<g>
		<path fill="#B3ACA2" d="M73.473,28.213h-4.474v-0.9c0.54-0.42,1.392-1.163,2.567-2.242c0.527-0.492,0.791-0.947,0.791-1.379
			c0-0.744-0.491-1.115-1.487-1.115c-0.731,0-1.307,0.203-1.738,0.6v-0.984c0.432-0.299,1.007-0.455,1.738-0.455
			c1.667,0,2.495,0.647,2.495,1.955c0,0.588-0.396,1.223-1.199,1.906l-1.344,1.164c-0.252,0.228-0.539,0.443-0.839,0.671h3.489
			V28.213z"/>
		<path fill="#B3ACA2" d="M77.183,28.393c-0.84,0-1.464-0.372-1.859-1.104c-0.3-0.564-0.456-1.308-0.456-2.23
			c0-0.924,0.156-1.668,0.468-2.231c0.396-0.731,1.008-1.091,1.859-1.091c0.839,0,1.463,0.371,1.858,1.104
			c0.3,0.563,0.456,1.307,0.456,2.23C79.509,27.289,78.729,28.393,77.183,28.393z M77.194,22.551c-0.888,0-1.331,0.84-1.331,2.508
			c0,1.666,0.443,2.506,1.331,2.506c0.875,0,1.319-0.84,1.319-2.506C78.514,23.391,78.069,22.551,77.194,22.551z"/>
		<path fill="#B3ACA2" d="M83.578,28.213h-1.02v-5.397l-1.631,1.451v-0.948l1.774-1.463h0.876V28.213z"/>
		<path fill="#B3ACA2" d="M88.222,28.393c-0.839,0-1.463-0.372-1.858-1.104c-0.3-0.564-0.456-1.308-0.456-2.23
			c0-0.924,0.156-1.668,0.468-2.231c0.396-0.731,1.008-1.091,1.859-1.091c0.839,0,1.463,0.371,1.858,1.104
			c0.3,0.563,0.456,1.307,0.456,2.23C90.549,27.289,89.77,28.393,88.222,28.393z M88.234,22.551c-0.888,0-1.331,0.84-1.331,2.508
			c0,1.666,0.443,2.506,1.331,2.506c0.875,0,1.319-0.84,1.319-2.506C89.554,23.391,89.109,22.551,88.234,22.551z"/>
	</g>
	<g>
		<path fill="#B3ACA2" d="M104.203,28.213h-4.474v-0.9c0.54-0.42,1.392-1.163,2.567-2.242c0.527-0.492,0.791-0.947,0.791-1.379
			c0-0.744-0.491-1.115-1.487-1.115c-0.731,0-1.307,0.203-1.738,0.6v-0.984c0.432-0.299,1.007-0.455,1.738-0.455
			c1.667,0,2.495,0.647,2.495,1.955c0,0.588-0.396,1.223-1.199,1.906l-1.344,1.164c-0.252,0.228-0.539,0.443-0.839,0.671h3.489
			V28.213z"/>
		<path fill="#B3ACA2" d="M107.913,28.393c-0.84,0-1.464-0.372-1.859-1.104c-0.3-0.564-0.456-1.308-0.456-2.23
			c0-0.924,0.156-1.668,0.468-2.231c0.396-0.731,1.008-1.091,1.859-1.091c0.839,0,1.463,0.371,1.858,1.104
			c0.3,0.563,0.456,1.307,0.456,2.23C110.239,27.289,109.46,28.393,107.913,28.393z M107.925,22.551
			c-0.888,0-1.331,0.84-1.331,2.508c0,1.666,0.443,2.506,1.331,2.506c0.875,0,1.319-0.84,1.319-2.506
			C109.244,23.391,108.8,22.551,107.925,22.551z"/>
		<path fill="#B3ACA2" d="M114.309,28.213h-1.02v-5.397l-1.631,1.451v-0.948l1.774-1.463h0.876V28.213z"/>
		<path fill="#B3ACA2" d="M119.469,28.213h-1.02v-5.397l-1.631,1.451v-0.948l1.774-1.463h0.876V28.213z"/>
	</g>
	<g>
		<path fill="#B3ACA2" d="M134.731,28.213h-4.473v-0.9c0.539-0.42,1.391-1.163,2.566-2.242c0.527-0.492,0.791-0.947,0.791-1.379
			c0-0.744-0.491-1.115-1.487-1.115c-0.731,0-1.307,0.203-1.738,0.6v-0.984c0.432-0.299,1.007-0.455,1.738-0.455
			c1.667,0,2.495,0.647,2.495,1.955c0,0.588-0.396,1.223-1.199,1.906l-1.344,1.164c-0.252,0.228-0.539,0.443-0.839,0.671h3.489
			V28.213z"/>
		<path fill="#B3ACA2" d="M138.44,28.393c-0.839,0-1.463-0.372-1.858-1.104c-0.3-0.564-0.456-1.308-0.456-2.23
			c0-0.924,0.156-1.668,0.468-2.231c0.396-0.731,1.008-1.091,1.859-1.091c0.839,0,1.463,0.371,1.858,1.104
			c0.3,0.563,0.456,1.307,0.456,2.23C140.768,27.289,139.988,28.393,138.44,28.393z M138.453,22.551
			c-0.888,0-1.331,0.84-1.331,2.508c0,1.666,0.443,2.506,1.331,2.506c0.875,0,1.319-0.84,1.319-2.506
			C139.772,23.391,139.328,22.551,138.453,22.551z"/>
		<path fill="#B3ACA2" d="M144.837,28.213h-1.02v-5.397l-1.631,1.451v-0.948l1.774-1.463h0.876V28.213z"/>
		<path fill="#B3ACA2" d="M151.892,28.213h-4.473v-0.9c0.539-0.42,1.391-1.163,2.566-2.242c0.527-0.492,0.791-0.947,0.791-1.379
			c0-0.744-0.491-1.115-1.487-1.115c-0.731,0-1.307,0.203-1.738,0.6v-0.984c0.432-0.299,1.007-0.455,1.738-0.455
			c1.667,0,2.495,0.647,2.495,1.955c0,0.588-0.396,1.223-1.199,1.906l-1.344,1.164c-0.252,0.228-0.539,0.443-0.839,0.671h3.489
			V28.213z"/>
	</g>
	<g>
		<path fill="#B3ACA2" d="M165.981,28.213h-4.473v-0.9c0.539-0.42,1.391-1.163,2.566-2.242c0.527-0.492,0.791-0.947,0.791-1.379
			c0-0.744-0.491-1.115-1.487-1.115c-0.731,0-1.307,0.203-1.738,0.6v-0.984c0.432-0.299,1.007-0.455,1.738-0.455
			c1.667,0,2.495,0.647,2.495,1.955c0,0.588-0.396,1.223-1.199,1.906l-1.344,1.164c-0.252,0.228-0.539,0.443-0.839,0.671h3.489
			V28.213z"/>
		<path fill="#B3ACA2" d="M169.69,28.393c-0.839,0-1.463-0.372-1.858-1.104c-0.3-0.564-0.456-1.308-0.456-2.23
			c0-0.924,0.156-1.668,0.468-2.231c0.396-0.731,1.008-1.091,1.859-1.091c0.839,0,1.463,0.371,1.858,1.104
			c0.3,0.563,0.456,1.307,0.456,2.23C172.018,27.289,171.238,28.393,169.69,28.393z M169.703,22.551
			c-0.888,0-1.331,0.84-1.331,2.508c0,1.666,0.443,2.506,1.331,2.506c0.875,0,1.319-0.84,1.319-2.506
			C171.022,23.391,170.578,22.551,169.703,22.551z"/>
		<path fill="#B3ACA2" d="M176.087,28.213h-1.02v-5.397l-1.631,1.451v-0.948l1.774-1.463h0.876V28.213z"/>
		<path fill="#B3ACA2" d="M182.339,27.949c-0.444,0.299-1.02,0.443-1.703,0.443c-0.816,0-1.439-0.156-1.884-0.469v-0.947
			c0.492,0.396,1.116,0.6,1.884,0.6c0.407,0,0.743-0.084,1.02-0.264c0.323-0.203,0.479-0.504,0.479-0.887
			c0-0.528-0.264-0.876-0.792-1.056c-0.288-0.097-0.768-0.144-1.451-0.144V24.53c0.563,0,0.996-0.048,1.271-0.144
			c0.492-0.168,0.731-0.48,0.731-0.924c0-0.3-0.144-0.539-0.42-0.695c-0.228-0.133-0.516-0.204-0.839-0.204
			c-0.732,0-1.319,0.168-1.739,0.516v-0.911c0.443-0.288,1.02-0.432,1.739-0.432c0.636,0,1.139,0.119,1.535,0.371
			c0.479,0.301,0.719,0.756,0.719,1.344c0,0.336-0.155,0.635-0.455,0.899c-0.252,0.228-0.563,0.384-0.936,0.468
			c0.456,0.048,0.84,0.216,1.151,0.504c0.323,0.312,0.479,0.695,0.479,1.139C183.13,27.109,182.866,27.601,182.339,27.949z"/>
	</g>
</g>
<g id="layer_3">
</g>
<g id="_x3C_Opacity_Mask_x3E_">
</g>
<g id="Isolation_Mode">
	<line fill="none" stroke="#B3ACA2" stroke-miterlimit="10" x1="17.132" y1="8.5" x2="172.5" y2="8.5"/>
	<g>
		<line fill="none" stroke="#B3ACA2" stroke-miterlimit="10" x1="17.132" y1="17" x2="17.132" y2="8"/>
		<line fill="none" stroke="#B3ACA2" stroke-miterlimit="10" x1="48.206" y1="17" x2="48.206" y2="8"/>
		<line fill="none" stroke="#B3ACA2" stroke-miterlimit="10" x1="79.279" y1="17" x2="79.279" y2="8"/>
		<line fill="none" stroke="#B3ACA2" stroke-miterlimit="10" x1="110.353" y1="17" x2="110.353" y2="8"/>
		<line fill="none" stroke="#B3ACA2" stroke-miterlimit="10" x1="141.426" y1="17" x2="141.426" y2="8"/>
		<line fill="none" stroke="#B3ACA2" stroke-miterlimit="10" x1="172.5" y1="17" x2="172.5" y2="8"/>
	</g>
	<g>
		<polygon fill="#FFF5E8" points="13.107,13.634 13.107,5.31 21.157,5.31 21.157,13.634 17.131,17.192 		"/>
		<path fill="#B3ACA2" d="M20.657,5.81v7.599l-3.526,3.116l-3.524-3.116V5.81H20.657 M21.657,4.81h-9.05v9.05l4.524,4l4.526-4V4.81
			L21.657,4.81z"/>
	</g>
</g>
</svg>
