<?xml version="1.0" encoding="utf-8"?>
<!-- Generator: Adobe Illustrator 16.0.0, SVG Export Plug-In . SVG Version: 6.00 Build 0)  -->
<!DOCTYPE svg PUBLIC "-//W3C//DTD SVG 1.1//EN" "http://www.w3.org/Graphics/SVG/1.1/DTD/svg11.dtd">
<svg version="1.1" xmlns="http://www.w3.org/2000/svg" xmlns:xlink="http://www.w3.org/1999/xlink" x="0px" y="0px" width="72px"
	 height="72px" viewBox="0 0 72 72" enable-background="new 0 0 72 72" xml:space="preserve">
<g id="background">
</g>
<g id="maps">
</g>
<g id="Cubes">
</g>
<g id="Icons">
</g>
<g id="Text">
</g>
<g id="layer_3">
	<g>
		<rect fill-rule="evenodd" clip-rule="evenodd" fill="#5392C7" width="72" height="72"/>
		<g opacity="0.2">
			<path d="M67,5v62H5V5H67 M72,0H0v72h72V0L72,0z"/>
		</g>
		<g>
			<path fill="none" stroke="#33312E" stroke-linecap="round" stroke-linejoin="round" stroke-miterlimit="10" d="M36,9.021
				L35.994,9.02c0,0-8.973,5.646-22.579,5.65c0,0,1.028,36.746,22.579,48.311L36,62.984c0.004-0.002,0.004-0.002,0.004-0.002
				C57.56,51.418,58.584,14.67,58.584,14.67C44.975,14.666,36,9.021,36,9.021z M36.432,59.564l-0.003-47.123
				c2.973,1.529,9.497,4.531,18.974,5.109C54.639,25.988,51.587,50.135,36.432,59.564z"/>
		</g>
	</g>
</g>
<g id="_x3C_Opacity_Mask_x3E_">
</g>
<g id="Isolation_Mode">
</g>
</svg>
