<?xml version="1.0" encoding="utf-8"?>
<!-- Generator: Adobe Illustrator 16.0.0, SVG Export Plug-In . SVG Version: 6.00 Build 0)  -->
<!DOCTYPE svg PUBLIC "-//W3C//DTD SVG 1.1//EN" "http://www.w3.org/Graphics/SVG/1.1/DTD/svg11.dtd">
<svg version="1.1" xmlns="http://www.w3.org/2000/svg" xmlns:xlink="http://www.w3.org/1999/xlink" x="0px" y="0px" width="90px"
	 height="90px" viewBox="0 0 90 90" enable-background="new 0 0 90 90" xml:space="preserve">
<g id="background">
</g>
<g id="maps">
</g>
<g id="Cubes">
	<rect x="3.997" y="4.003" fill="#FFBD47" width="82" height="82"/>
	<path fill="#33312E" d="M86,4v82H4V4H86 M90,0h-4H4H0v4v82v4h4h82h4v-4V4V0L90,0z"/>
</g>
<g id="Icons">
</g>
<g id="Text">
</g>
<g id="layer_3">
	<g>
		<rect x="54.776" y="16.859" fill="#FFBD47" stroke="#33312E" stroke-miterlimit="10" width="20.538" height="12.152"/>
		<line fill="#FFBD47" stroke="#33312E" stroke-miterlimit="10" x1="13.314" y1="70.859" x2="75.314" y2="70.859"/>
		<line fill="#FFBD47" stroke="#33312E" stroke-miterlimit="10" x1="57.867" y1="21.271" x2="72.057" y2="21.271"/>
		<line fill="#FFBD47" stroke="#33312E" stroke-miterlimit="10" x1="57.867" y1="24.976" x2="72.057" y2="24.976"/>
		<rect x="72.986" y="29.012" fill="#FFBD47" stroke="#33312E" stroke-miterlimit="10" width="2.328" height="41.416"/>
		<path fill="#FFBD47" stroke="#33312E" stroke-miterlimit="10" d="M13.314,63.314h62V34.256c0,0-23.697,0-42.45,0
			s-19.55,15.921-19.55,20.67C13.314,59.676,13.314,63.314,13.314,63.314z"/>
		<path fill="#FFBD47" stroke="#33312E" stroke-miterlimit="10" d="M18.757,50.155h19.471v-10.19c0,0-6.04,0-9.081,0
			C21.101,39.965,18.757,50.155,18.757,50.155z"/>
		<ellipse fill="#FFBD47" stroke="#33312E" stroke-miterlimit="10" cx="27.12" cy="63.314" rx="6.926" ry="6.826"/>
		<ellipse fill="#FFBD47" stroke="#33312E" stroke-miterlimit="10" cx="27.12" cy="63.314" rx="3.363" ry="3.314"/>
		<ellipse fill="#FFBD47" stroke="#33312E" stroke-miterlimit="10" cx="63.047" cy="63.314" rx="6.926" ry="6.826"/>
		<rect x="54.776" y="39.965" fill="#FFBD47" stroke="#33312E" stroke-miterlimit="10" width="17.28" height="10.211"/>
		<rect x="41.649" y="39.965" fill="#FFBD47" stroke="#33312E" stroke-miterlimit="10" width="9.653" height="23.35"/>
		<ellipse fill="#FFBD47" stroke="#33312E" stroke-miterlimit="10" cx="63.047" cy="63.314" rx="3.364" ry="3.314"/>
		<line fill="#FFBD47" stroke="#33312E" stroke-miterlimit="10" x1="34.046" y1="50.155" x2="36.264" y2="45.588"/>
		<line fill="#FFBD47" stroke="#33312E" stroke-miterlimit="10" x1="26.679" y1="50.155" x2="28.896" y2="45.588"/>
		<line fill="#FFBD47" stroke="#33312E" stroke-miterlimit="10" x1="56.121" y1="50.155" x2="58.338" y2="45.588"/>
		<line fill="#FFBD47" stroke="#33312E" stroke-miterlimit="10" x1="61.199" y1="50.155" x2="63.416" y2="45.588"/>
		<line fill="#FFBD47" stroke="#33312E" stroke-miterlimit="10" x1="66.277" y1="50.155" x2="68.494" y2="45.588"/>
	</g>
</g>
<g id="_x3C_Opacity_Mask_x3E_">
</g>
<g id="Isolation_Mode">
</g>
</svg>
