<?xml version="1.0" encoding="utf-8"?>
<!-- Generator: Adobe Illustrator 16.0.0, SVG Export Plug-In . SVG Version: 6.00 Build 0)  -->
<!DOCTYPE svg PUBLIC "-//W3C//DTD SVG 1.1//EN" "http://www.w3.org/Graphics/SVG/1.1/DTD/svg11.dtd">
<svg version="1.1" xmlns="http://www.w3.org/2000/svg" xmlns:xlink="http://www.w3.org/1999/xlink" x="0px" y="0px" width="90px"
	 height="90px" viewBox="0 0 90 90" enable-background="new 0 0 90 90" xml:space="preserve">
<g id="background">
</g>
<g id="maps">
</g>
<g id="Cubes">
	<rect x="4" y="4.003" fill="#C77498" width="82" height="82"/>
	<path fill="#33312E" d="M86,4v82H4V4H86 M90,0h-4H4H0v4v82v4h4h82h4v-4V4V0L90,0z"/>
</g>
<g id="Icons">
</g>
<g id="Text">
</g>
<g id="layer_3">
	<g>
		<g>
			
				<line fill="none" stroke="#33312E" stroke-linecap="round" stroke-linejoin="round" stroke-miterlimit="10" x1="55.36" y1="33.185" x2="63.309" y2="25.217"/>
			<path fill="none" stroke="#33312E" stroke-linecap="round" stroke-linejoin="round" stroke-miterlimit="10" d="M53.02,40.462
				c2.547-2.552,7.271-4.926,7.271-4.926c1.84-6.92,3.118-10.42,3.118-10.42s-3.492,1.28-10.396,3.127c0,0-2.366,4.735-4.913,7.288
				L53.02,40.462z"/>
			
				<circle fill="none" stroke="#33312E" stroke-linecap="round" stroke-linejoin="round" stroke-miterlimit="10" cx="54.728" cy="33.817" r="0.906"/>
			<polygon fill="none" stroke="#33312E" stroke-linecap="round" stroke-linejoin="round" stroke-miterlimit="10" points="
				51.318,42.756 45.803,37.227 48.1,35.531 53.01,40.452 			"/>
			<polygon fill="none" stroke="#33312E" stroke-linecap="round" stroke-linejoin="round" stroke-miterlimit="10" points="
				45.803,37.227 51.318,42.756 20.245,70.681 17.945,68.372 			"/>
		</g>
		
			<line fill="none" stroke="#33312E" stroke-linecap="round" stroke-linejoin="round" stroke-miterlimit="10" x1="17.321" y1="71.116" x2="61.734" y2="71.116"/>
		<g>
			<polygon fill="none" stroke="#33312E" stroke-linecap="round" stroke-linejoin="round" stroke-miterlimit="10" points="
				63.882,54.094 49.98,54.094 46.54,71.116 67.321,71.116 			"/>
			
				<rect x="51.461" y="52.322" fill="none" stroke="#33312E" stroke-linecap="round" stroke-linejoin="round" stroke-miterlimit="10" width="10.939" height="1.771"/>
			
				<rect x="51.461" y="50.553" fill="none" stroke="#33312E" stroke-linecap="round" stroke-linejoin="round" stroke-miterlimit="10" width="10.939" height="1.77"/>
			
				<rect x="49.765" y="45.403" fill="none" stroke="#33312E" stroke-linecap="round" stroke-linejoin="round" stroke-miterlimit="10" width="14.332" height="5.149"/>
			
				<line fill="none" stroke="#33312E" stroke-linecap="round" stroke-linejoin="round" stroke-miterlimit="10" x1="51.461" y1="54.094" x2="50.314" y2="71.116"/>
			
				<line fill="none" stroke="#33312E" stroke-linecap="round" stroke-linejoin="round" stroke-miterlimit="10" x1="62.377" y1="54.094" x2="63.523" y2="71.116"/>
		</g>
	</g>
</g>
<g id="_x3C_Opacity_Mask_x3E_">
</g>
<g id="Isolation_Mode">
</g>
</svg>
