<svg width="1000" height="650" version="1.1" xmlns="http://www.w3.org/2000/svg">

	<g transform="translate(373,186.5)">
		<g id="innerg" transform="scale(67)translate(-71,70.8)" style="stroke-width: 0.0268631262348625px;">
			<path d="M74.09719127031572,-71.87926093641909L74.05988716723738,-71.87086413145357L73.9479748580024,-71.8002278651208L73.88083426119718,-71.73781280010405L73.84356410179772,-71.72122321405323L73.79879238936795,-71.72537049322293L73.76148828628962,-71.70039155301203L73.72418418321129,-71.65883056871832L73.70928290818726,-71.64224693802744L73.69434768948439,-71.6338591820968L73.68688008013294,-71.6255681512907L73.68688008013294,-71.60484194033639L73.69434768948439,-71.5881659870691L73.71671657385984,-71.57573213854567L73.71671657385984,-71.56329899192103L73.70181529883583,-71.56329899192103L73.70181529883583,-71.54248227100103L73.70928290818726,-71.52176387673349L73.71671657385984,-71.45942771047643L73.7316517925627,-71.4261953803845L73.72418418321129,-71.41377066452867L73.71671657385984,-71.41377066452867L73.71671657385984,-71.41791215873764L73.71671657385984,-71.4261953803845L73.70928290818726,-71.41791215873764L73.70181529883583,-71.39296805551238L73.68688008013294,-71.40962924805407L73.69434768948439,-71.35984202186769L73.70181529883583,-71.34318458670583L73.67197880510894,-71.34318458670583L73.67197880510894,-71.32662468288599L73.67941247078151,-71.32662468288599L73.69434768948439,-71.32662468288599L73.70928290818726,-71.30583028315176L73.70928290818726,-71.29341233907249L73.7316517925627,-71.27262106504273L73.7316517925627,-71.26020498707751L73.70928290818726,-71.25192798924652L73.70181529883583,-71.23951307358907L73.69434768948439,-71.22286470741147L73.68688008013294,-71.20631381713022L73.69434768948439,-71.20217628809942L73.70181529883583,-71.19803883647143L73.70181529883583,-71.19390146223977L73.71671657385984,-71.18966795011318L73.71671657385984,-71.17311954371314L73.70181529883583,-71.16484580468331L73.68688008013294,-71.15657237503139L73.70181529883583,-71.13993024999553L73.67197880510894,-71.12338556269877L73.67941247078151,-71.11924958408987L73.68688008013294,-71.11924958408987L73.68688008013294,-71.10674593263738L73.67197880510894,-71.10674593263738L73.67197880510894,-71.09020372506117L73.68688008013294,-71.0777978802937L73.68688008013294,-71.06943154013433L73.67941247078151,-71.06116167538121L73.65704358640606,-71.05702685878164L73.66451119575748,-71.03212343281295L73.67197880510894,-71.02385496052511L73.67941247078151,-71.01145283050892L73.68688008013294,-70.99491773659223L73.52276239279561,-68.80543733280489L73.47799068036583,-68.81771814323315L73.47799068036583,-68.81362446603117L73.47799068036583,-68.67419784077556L73.47799068036583,-68.64955723932063L73.46308940534183,-68.59628937467873L73.4257853022635,-68.49787170246182L73.38848119918516,-68.42819674637612L73.40341641788805,-68.41185045067036L73.40341641788805,-68.35863805644661L73.37357992416116,-68.30534306152576L73.35117709610684,-68.24807191493319L73.35864470545827,-68.18255534785241L73.38101358983373,-68.1171524310498L73.40341641788805,-68.07207420547257L73.43325291161493,-68.01078203636641L73.44815418663894,-67.94533324570959L73.43325291161493,-67.87582618907986L73.33627582108282,-67.68391377511425L73.3288082117314,-67.610413415381L73.3288082117314,-67.53693647906519L73.30643932735593,-67.49206645665537L73.24673239622327,-67.43897206170473L73.22436351184783,-67.41455841442875L73.19452701812095,-67.3574140671785L73.1870594087695,-67.30444516489976L73.19452701812095,-67.24742256042245L73.1870594087695,-67.19438428508712L73.1721581337455,-67.17406089106761L73.13485403066717,-67.1414526566208L73.11991881196428,-67.12103940050743L73.10501753694025,-67.09259614596834L73.09754992758883,-67.06812450848093L73.09008231823739,-67.00709838288003L73.07514709953452,-66.94599385774305L72.95580112462694,-66.701924818061L72.86629164344627,-66.40525229861525L72.85135642474337,-66.3484495260766L72.8215199310165,-66.25098433962054L72.8215199310165,-66.19421895438676L72.82898754036793,-66.16984135590535L72.85882403409482,-66.12118785211254L72.86629164344627,-66.08468081897368L72.85882403409482,-66.05222443318733L72.85135642474337,-66.02795563060009L72.83645514971938,-65.99955114502235L72.8215199310165,-65.97115009012924L72.79915104664106,-65.8455494432776L72.78421582793816,-65.8050443588362L72.78421582793816,-65.73617350007103L72.82898754036793,-65.59051161764488L72.82898754036793,-65.5136315939679L72.7916834372896,-65.43274211015346L72.70960762178152,-65.29926918367727L72.67977112805463,-65.20636084856362L72.67977112805463,-65.17805493928711L72.67230351870317,-65.15790543629942L72.6648698530306,-65.1376639349445L72.65740224367916,-65.1175178558033L72.64246702497628,-65.03666959980018L72.63499941562485,-64.89143655466415L72.62756574995227,-64.8430451984533L72.53058865942016,-64.58094760261916L72.51565344071729,-64.52046835834716L72.50818583136584,-64.38759849886432L72.4858169469904,-64.32716799611588L72.45598045326348,-64.2829055300043L72.44104523456062,-64.23062282408523L72.43357762520917,-64.16621868820349L72.4261439595366,-64.1340230829348L72.41120874083371,-64.11396133232549L72.38137224710684,-64.06973807246148L72.35900336273139,-64.0415663038044L72.35153575337995,-64.02552292688873L72.35153575337995,-64.00938735129057L72.3440681440285,-64.00136659982915L72.3291668690045,-64.00136659982915L72.30676404095017,-64.00136659982915L72.29186276592617,-64.00136659982915L72.27692754722328,-64.03755535948324L72.22472216912092,-64.1340230829348L72.20978695041806,-64.1903915528207L72.2172545597695,-64.35537323120718L72.1650152379883,-64.60104841524712L72.08297336615907,-64.826854537829L71.99346388497838,-65.07713713454953L71.9785286662755,-65.20636084856362L71.9785286662755,-65.22248360281162L71.9785286662755,-65.2346701318649L71.9785286662755,-65.2507948086421L71.97106105692404,-65.26288903510198L71.88901918509484,-65.49335970744903L71.7696392665084,-65.8455494432776L71.69503106035172,-66.04413455387665L71.67266217597628,-66.08063528569974L71.56074986674129,-66.17802968755927L71.54584859171727,-66.20231400678614L71.54584859171727,-66.23074303219798L71.54584859171727,-66.27132155281835L71.56821747609274,-66.34439944023266L71.56821747609274,-66.37689628928811L71.54584859171727,-66.40525229861525L71.51601209799038,-66.44991291651196L71.50107687928751,-66.49052944897943L71.49360926993606,-66.59214882231734L71.44887150118517,-66.78325273760503L71.32205791692616,-67.12103940050743L71.21761321704261,-67.39818946742321L71.13553740153449,-67.610413415381L71.07586441408073,-67.81458636894253L70.99378859857262,-68.06799387727015L70.97141971419717,-68.13755917459041L71.00125620792406,-68.16622660069883L71.11316851715905,-68.24398845043495L71.18030911396428,-68.32586158854578L71.18777672331571,-68.36680915434943L71.17284150461285,-68.44872631037731L71.17284150461285,-68.48969591298498L71.21761321704261,-68.57574652598066L71.44887150118517,-68.80134387676813L71.47870799491206,-68.82181189416922L71.4861756042635,-68.82181189416922L71.55331620106871,-68.88341747081435L71.55331620106871,-68.9367526391048L71.51601209799038,-68.98600355740602L71.45633911053662,-69.03945814348616L71.47124038556062,-69.08053431189076L71.52347970734183,-69.14621447094528L71.70249866970317,-69.46287157905712L71.71743388840605,-69.48349496999961L71.83677986331362,-69.74699118338017L71.88901918509484,-69.87483781609765L71.93375695384573,-69.93663572576895L71.99346388497838,-70.15124305134964L72.00089755065096,-70.16359736724985L71.99346388497838,-70.18830804554892L71.99346388497838,-70.20076019671446L72.02330037870527,-70.2172364159819L72.19488567539405,-70.74223797077698L72.26202627219926,-71.10674593263738L72.3291668690045,-71.43033710783548L72.3440681440285,-71.45114324083748L72.35153575337995,-71.56329899192103L72.36643702840394,-71.59655200224209L72.35900336273139,-71.62971362765687L72.41120874083371,-71.83342022080832L72.41867635018517,-72.05402602327474L72.43357762520917,-72.1039707075637L72.46344806261493,-72.12058925948237L72.49328455634183,-72.11227982585157L72.53802232509273,-72.08735341680598L72.56785881881962,-72.0789486394266L72.5827940375225,-72.08319929112358L72.65740224367916,-72.16233444270797L72.6648698530306,-72.18311337002649L72.68723873740605,-72.2456553542081L72.6947063467575,-72.2789152558444L72.68723873740605,-72.30811852843371L72.6648698530306,-72.32059396383467L72.67230351870317,-72.35812127389153L72.68723873740605,-72.50829506783222L72.71707523113295,-72.58758441572888L72.72454284048439,-72.63765128483571L72.71707523113295,-72.67939861825339L72.72454284048439,-72.68772967112041L72.73944411550839,-72.7044896159266L72.74691172485984,-72.71282162967944L72.73201044983583,-72.7295835079162L72.74691172485984,-72.7295835079162L72.91102941219718,-72.7169877562395L72.91849702154862,-72.72115396259771L72.94086590592407,-72.74208309034253L72.95580112462694,-72.74624977748536L72.97073634332983,-72.74624977748536L73.00057283705672,-72.73791648303782L73.01547411208071,-72.73791648303782L73.09008231823739,-72.76291732457108L73.11245120261285,-72.76291732457108L73.12738642131572,-72.754583391312L73.13485403066717,-72.75041654447293L73.16469052439406,-72.73374995556465L73.17959179941805,-72.70865558291068L73.19452701812095,-72.67939861825339L73.21689590249639,-72.65440737315049L73.24673239622327,-72.65024244461527L73.35864470545827,-72.67939861825339L73.45562179599038,-72.72115396259771L73.52276239279561,-72.7295835079162L73.53023000214706,-72.76708441100446L73.57500171457683,-72.8339625412953L73.58990298960084,-72.87574758998386L73.59737059895228,-72.93848873797452L73.60483820830372,-73.05975566388476L73.61973948332772,-73.11410525955279L73.64214231138205,-73.14759528279802L73.64957597705461,-73.18526561520952L73.66451119575748,-73.20614246319086L73.69434768948439,-73.2103180745077L73.70181529883583,-73.19361611270838L73.73911940191415,-73.13507231999614L73.76895589564106,-73.11410525955279L73.7764235049925,-73.10575782822443L73.78385717066506,-73.11410525955279L73.7764235049925,-73.16011896999451L73.79132478001651,-73.18109048728672L73.8211612737434,-73.18526561520952L73.85846537682173,-73.19361611270838L73.89576947990004,-73.22711844143076L73.97784529540816,-73.3108483981347L74.01511545480761,-73.31920374628844L74.03751828286194,-73.32338154150875L74.06735477658883,-73.33173737427006L74.09719127031572,-73.34436889769798L74.11956015469119,-73.36108250990976L74.15686425776951,-73.39879005959058L74.19416836084783,-73.48258659519654L74.23147246392617,-73.52031538115267L74.23147246392617,-73.50358943486519L74.22400485457472,-73.49094859189958L74.2165372452233,-73.44904463342927L74.20910357955073,-73.43650419550397L74.20910357955073,-73.40296939438036L74.17179947647239,-73.37779741543508L74.15686425776951,-73.36108250990976L74.1121264890186,-73.34019069667468L74.1867007514964,-73.28568714943803L74.11956015469119,-73.18526561520952L74.13449537339405,-73.16846849732319L74.19416836084783,-73.12662700982061L74.20163597019928,-73.00949442077068L74.24640768262904,-72.98029391482216L74.25384134830162,-72.90920081386359L74.23147246392617,-72.8632403170646L74.20910357955073,-72.82562588326746L74.20910357955073,-72.78801796070354L74.28367784202851,-72.754583391312L74.28367784202851,-72.72115396259771L74.30608067008284,-72.48748518286112L74.32098194510685,-72.45825790725752L74.36575365753662,-72.3748558905972L74.33591716380971,-72.32059396383467L74.32098194510685,-72.31643540621018L74.29114545137993,-72.2539698552016L74.26130895765306,-72.1789574266931L74.2687765670045,-72.14977139729187L74.25384134830162,-72.08735341680598L74.14939664841806,-71.96247423257296Z" style="fill: rgb(255, 240, 147); stroke: rgb(17, 17, 17);"></path>
			
			<circle class="point" cx="73.01129629629631" cy="-69.48493009849123" r="0.1" style="fill: rgb(15, 160, 250);"></circle>
			<text x="73.21129629629631" y="-69.48493009849123" style="font-size: 0.3px;">ירושלים</text>
			
			<circle class="point" cx="72" cy="-69.5" r="0.1" style="fill: rgb(15, 160, 250);"></circle>
			<text x="71.5" y="-69" style="font-size: 0.3px;">ראשל"צ</text>
		</g>
	</g>
</svg>